<svg width="136" height="68" viewBox="0 0 136 68" fill="none" xmlns="http://www.w3.org/2000/svg">
<path d="M27.88 23.9134C18.36 23.9134 10.7667 31.6201 10.7667 41.0267C10.7667 50.5467 18.4733 58.1401 27.88 58.1401C37.2867 58.1401 44.9933 50.4334 44.9933 41.0267C44.9933 31.5067 37.2867 23.9134 27.88 23.9134ZM27.88 48.6201C23.6867 48.6201 20.2867 45.2201 20.2867 41.0267C20.2867 36.8334 23.6867 33.4334 27.88 33.4334C32.0733 33.4334 35.4733 36.8334 35.4733 41.0267C35.4733 45.2201 32.0733 48.6201 27.88 48.6201Z" fill="#ED760A"/>
<path d="M21.1933 22.5534C20.9666 22.6667 20.7399 22.6667 20.5133 22.6667C19.7199 22.6667 19.0399 22.2134 18.8133 21.5334L15.7533 14.96V15.0734C15.6399 14.8467 15.5266 14.5067 15.5266 14.1667C15.5266 13.4867 15.9799 12.8067 16.5466 12.4667C20.0599 10.6534 23.9133 9.7467 27.7666 9.7467C41.3666 9.7467 52.2466 20.74 52.2466 34.2267C52.2466 41.48 49.1866 47.94 44.1999 52.36C44.0866 52.36 44.0866 52.4734 44.0866 52.4734C43.9733 52.4734 43.8599 52.36 43.8599 52.2467C43.8599 52.1334 43.8599 52.1334 43.8599 52.02C46.1266 48.7334 47.3733 44.88 47.3733 40.8C47.3733 29.92 38.6466 21.1934 27.7666 21.1934C25.6133 21.42 23.3466 21.76 21.1933 22.5534Z" fill="#F9A01B"/>
<path d="M70.04 32.0733V31.7333C70.04 30.7133 69.7 29.92 66.64 29.92C65.1667 29.92 63.92 30.1467 63.3534 30.26C61.6534 30.4867 61.3133 30.0333 60.9733 28.4467L60.86 28.1067C60.7467 27.6533 60.7467 27.3133 60.7467 27.0867C60.7467 26.0667 61.2 25.84 62.6733 25.5C64.1467 25.16 66.98 25.16 68.4534 25.16C74.46 25.16 76.3867 26.6333 76.3867 31.62V39.44C76.3867 41.2533 76.0467 41.7067 74.12 42.16C73.5534 42.2734 71.06 42.84 68.2267 42.84C63.92 42.84 59.7267 41.7067 59.7267 37.4V36.6067C59.7267 33.32 62.1067 31.5067 65.96 31.5067C67.5467 31.3933 68.68 31.62 70.04 32.0733ZM66.64 36.9467C66.64 37.8533 67.32 38.42 68.7934 38.42C69.2467 38.42 69.7 38.3067 70.04 38.3067V36.2667C69.4733 35.9267 68.7933 35.8134 68.34 35.8134C67.2067 35.8134 66.64 36.2667 66.64 36.9467ZM96.9 32.98V33.5467C96.9 40.8 92.0267 42.84 86.8133 42.84C84.5467 42.84 82.1667 42.5 80.92 42.16C79.6733 41.82 78.9933 41.14 78.9933 39.6667V20.4C78.9933 19.04 79.56 18.4733 80.92 18.4733H83.5267C84.8867 18.4733 85.4534 19.04 85.4534 20.4V26.2934C87.2667 25.2733 88.74 25.0467 89.9867 25.0467C94.2933 24.9333 96.9 27.88 96.9 32.98ZM90.1 33.32C90.1 31.3933 89.3067 30.26 87.4933 30.26C86.9267 30.26 86.1333 30.3734 85.4534 30.7134V37.6267C86.02 37.74 86.4733 37.74 86.7 37.74C88.5133 37.74 90.1 36.4934 90.1 33.66V33.32ZM107.44 40.0067C107.553 41.5933 107.1 41.9334 105.74 42.16C105.173 42.2734 104.493 42.3867 103.7 42.3867C100.64 42.3867 98.94 41.0267 98.94 36.38V20.6267C98.94 19.04 99.62 18.36 101.207 18.36H103.133C104.72 18.36 105.4 19.04 105.4 20.6267V36.38C105.4 37.2867 105.513 37.5133 105.967 37.5133H106.307C107.213 37.5133 107.44 38.3067 107.44 39.3267V40.0067ZM116.96 36.9467C118.207 34.34 119.113 31.28 119.113 27.88V27.54C119.113 25.9533 119.793 25.2733 121.38 25.2733H122.967C124.553 25.2733 125.233 25.9533 125.233 27.54V27.9934C125.233 36.6067 121.153 41.48 115.147 48.8467C114.807 49.3 114.353 49.64 113.9 49.64C113.333 49.64 112.993 49.4134 112.427 48.96L111.293 48.0534C110.5 47.4867 110.16 46.92 110.16 46.3534C110.16 46.0134 110.273 45.6734 110.613 45.3334C111.407 44.54 112.54 43.4067 113.333 42.2733C111.86 40.2333 108.573 33.0934 107.44 27.3133C107.1 25.7267 107.44 25.16 109.48 25.16H111.973C113.673 25.16 113.9 26.4067 114.127 27.4267C114.807 31.28 116.393 36.04 116.393 36.04C116.62 36.1533 116.96 36.9467 116.96 36.9467Z" fill="#202020"/>
</svg>
