<svg width="81" height="81" viewBox="0 0 81 81" fill="none" xmlns="http://www.w3.org/2000/svg">
<g clip-path="url(#clip0_15_1097)">
<path d="M17.608 0H62.794C72.5186 0 80.402 7.88336 80.402 17.608V62.794C80.402 72.5186 72.5186 80.402 62.794 80.402H17.608C7.88336 80.402 0 72.5186 0 62.794V17.608C0 7.88336 7.88336 0 17.608 0Z" fill="url(#paint0_linear_15_1097)"/>
<path d="M25.7667 58.3573L25.7743 58.3597L23.0253 63.121C22.0219 64.859 19.7994 65.4545 18.0614 64.451C16.3235 63.4477 15.728 61.2252 16.7314 59.4872L18.7565 55.9797L18.9508 55.6431C19.2979 55.1441 20.1544 54.2833 21.8676 54.4451C21.8676 54.4451 25.8993 54.8826 26.191 56.9781C26.1911 56.9781 26.2309 57.6676 25.7667 58.3573ZM64.7565 46.1962H56.1842C55.6004 46.1571 55.3454 45.9486 55.2454 45.8274L55.239 45.8164L46.0626 29.9225L46.0508 29.9305L45.5004 29.1414C44.5985 27.7621 43.1663 31.2898 43.1663 31.2898C41.4563 35.2205 43.4089 39.6896 44.0898 41.0404L56.8352 63.116C57.8385 64.854 60.0611 65.4496 61.799 64.4461C63.537 63.4428 64.1325 61.2203 63.1291 59.4823L59.9419 53.9621C59.8803 53.8284 59.7728 53.4652 60.4264 53.4637H64.7565C66.7633 53.4637 68.3902 51.8368 68.3902 49.83C68.3902 47.8231 66.7633 46.1962 64.7565 46.1962ZM48.1063 51.1362C48.1063 51.1362 48.5639 53.4637 46.7934 53.4637H45.023V53.4637H15.1041C13.0972 53.4637 11.4703 51.8368 11.4703 49.83C11.4703 47.8231 13.0972 46.1962 15.1041 46.1962H23.2511C24.5664 46.1199 24.8782 45.3607 24.8782 45.3607L24.8854 45.3643L35.5199 26.9447L35.5167 26.9441C35.7107 26.5882 35.5492 26.252 35.5211 26.1988L32.0091 20.1158C31.0056 18.3778 31.6011 16.1554 33.3391 15.152C35.0771 14.1485 37.2995 14.744 38.3029 16.482L39.9318 19.3033L41.5577 16.4871C42.5611 14.7491 44.7835 14.1535 46.5215 15.157C48.2595 16.1605 48.855 18.3829 47.8516 20.1208L33.0533 45.7521C32.9886 45.9081 32.9688 46.153 33.4502 46.1962H42.2957L42.2976 46.2824C42.2976 46.2824 47.4101 46.3619 48.1063 51.1362Z" fill="white"/>
</g>
<defs>
<linearGradient id="paint0_linear_15_1097" x1="40.201" y1="0" x2="40.201" y2="80.402" gradientUnits="userSpaceOnUse">
<stop stop-color="#17C9FB"/>
<stop offset="1" stop-color="#1A74E8"/>
</linearGradient>
<clipPath id="clip0_15_1097">
<rect width="80.402" height="80.402" fill="white"/>
</clipPath>
</defs>
</svg>
