<svg width="180" height="90" viewBox="0 0 180 90" fill="none" xmlns="http://www.w3.org/2000/svg">
<path fill-rule="evenodd" clip-rule="evenodd" d="M22.335 40.89L18.057 42.0105C15.207 39.4635 11.538 37.7655 7.49702 37.3605C10.6545 35.1195 17.547 30.978 27.426 30.9435L24.981 33.1845C24.981 33.1845 35.406 32.8095 38.031 29.2455C37.9965 29.5845 37.794 30.0255 37.692 30.3315C36.945 32.5065 35.5875 34.2705 33.8895 35.6265C32.2605 36.951 30.3585 37.9005 28.4895 38.682C26.5395 39.4965 24.6195 40.242 22.6155 40.821C22.5317 40.8634 22.4394 40.8865 22.3455 40.8885L22.335 40.89ZM38.7435 40.821C38.7435 40.821 29.0835 40.11 19.0335 43.266C20.3623 44.6341 21.4833 46.1896 22.3605 47.883C27.6225 44.997 34.9215 41.331 38.7105 40.821H38.7435ZM23.1 49.296C23.7105 50.892 24.12 52.5555 24.255 54.321L33.285 44.8155L23.1 49.296Z" fill="#F99D1C"/>
<path fill-rule="evenodd" clip-rule="evenodd" d="M51.57 54.6601L51.195 52.5556C50.3805 53.2681 49.53 53.8456 48.615 54.3211C47.7 54.7621 46.7475 55.0006 45.765 55.0006C45.1458 55.0098 44.5285 54.93 43.932 54.7636C43.389 54.5941 42.879 54.3556 42.4725 53.9836C42.0315 53.6446 41.7255 53.2036 41.4885 52.6936C41.2515 52.1836 41.1135 51.5386 41.1135 50.8606C41.1135 50.0116 41.283 49.2316 41.6235 48.5506C41.964 47.8696 42.5385 47.2951 43.3215 46.7851C44.1045 46.2751 45.1545 45.8701 46.4115 45.5626C47.7015 45.2566 49.2615 44.9851 51.1305 44.8156V43.4401C51.1305 42.3196 50.8245 41.4901 50.2155 40.9621C49.6065 40.4341 48.7905 40.1476 47.703 40.1476C46.821 40.1476 45.903 40.2826 45.021 40.5226C44.1154 40.7669 43.2388 41.1084 42.4065 41.5411L42.2025 40.0816C43.0845 39.6736 43.968 39.3691 44.85 39.0976C45.7916 38.848 46.7618 38.7225 47.736 38.7241C49.296 38.7241 50.52 39.1321 51.336 39.9121C52.152 40.6921 52.5915 41.8621 52.5915 43.3771V54.6481L51.57 54.6601ZM51.162 46.0711C49.566 46.2406 48.243 46.4791 47.157 46.7506C46.071 47.0221 45.207 47.3281 44.5425 47.7016C43.8975 48.0766 43.422 48.5161 43.1175 48.9916C42.8475 49.5016 42.6765 50.0776 42.6765 50.7226C42.6765 51.7066 42.9825 52.4536 43.5915 52.9276C44.2005 53.4016 44.949 53.6401 45.8325 53.6401C46.647 53.6401 47.5635 53.4031 48.48 52.9606C49.4579 52.5003 50.3525 51.8809 51.1275 51.1276V46.0696L51.162 46.0711ZM70.65 46.4461C70.65 47.8711 70.446 49.1281 70.0725 50.1961C69.699 51.2641 69.1575 52.1656 68.5125 52.8436C67.833 53.5561 67.0875 54.0661 66.2385 54.4036C65.3895 54.7411 64.473 54.9136 63.5235 54.9136C62.7832 54.9162 62.0443 54.8479 61.317 54.7096C60.6045 54.5746 59.9595 54.3706 59.3475 54.1321V60.4321L57.7875 60.7711V39.0421H58.908L59.316 41.3161C59.961 40.6036 60.6735 39.9916 61.455 39.4831C62.2365 38.9746 63.186 38.7031 64.305 38.7031C65.154 38.7031 65.97 38.8726 66.75 39.1786C67.53 39.4846 68.2095 39.9586 68.787 40.6036C69.4093 41.3047 69.8828 42.1247 70.179 43.0141C70.485 43.9981 70.6545 45.1186 70.6545 46.4431L70.65 46.4461ZM69.0255 46.5106C69.0255 44.4061 68.5845 42.8446 67.668 41.7556C66.7515 40.6666 65.598 40.1266 64.203 40.1266C63.252 40.1266 62.403 40.3966 61.623 40.9066C60.843 41.4166 60.063 42.1291 59.313 43.0111V52.5901C59.9396 52.9032 60.6006 53.1423 61.2825 53.3026C61.962 53.4721 62.7075 53.5396 63.4575 53.5396C64.2375 53.5396 64.9515 53.4046 65.6325 53.1316C66.32 52.8566 66.9271 52.413 67.398 51.8416C67.908 51.2641 68.28 50.5171 68.586 49.6366C68.892 48.7561 69.027 47.7361 69.027 46.5136L69.0255 46.5106ZM87.6315 46.4461C87.6315 47.8711 87.4275 49.1281 87.054 50.1961C86.6805 51.2641 86.139 52.1656 85.494 52.8436C84.8145 53.5561 84.069 54.0661 83.22 54.4036C82.371 54.7411 81.4545 54.9136 80.505 54.9136C79.7647 54.9162 79.0258 54.8479 78.2985 54.7096C77.586 54.5746 76.941 54.3706 76.329 54.1321V60.4321L74.769 60.7711V39.0421H75.8895L76.2975 41.3161C76.9425 40.6036 77.655 39.9916 78.4365 39.4831C79.218 38.9746 80.1675 38.7031 81.2865 38.7031C82.1355 38.7031 82.9515 38.8726 83.7315 39.1786C84.5115 39.4846 85.191 39.9586 85.7685 40.6036C86.3908 41.3047 86.8643 42.1247 87.1605 43.0141C87.4665 43.9981 87.636 45.1186 87.636 46.4431L87.6315 46.4461ZM86.007 46.5106C86.007 44.4061 85.566 42.8446 84.6495 41.7556C83.733 40.6666 82.5795 40.1266 81.1845 40.1266C80.2335 40.1266 79.3845 40.3966 78.6045 40.9066C77.8245 41.4166 77.0445 42.1291 76.2945 43.0111V52.5901C76.9211 52.9032 77.5821 53.1423 78.264 53.3026C78.9435 53.4721 79.689 53.5396 80.439 53.5396C81.219 53.5396 81.933 53.4046 82.614 53.1316C83.3015 52.8566 83.9086 52.413 84.3795 51.8416C84.8895 51.2641 85.2615 50.5171 85.5675 49.6366C85.8735 48.7561 86.0085 47.7361 86.0085 46.5136L86.007 46.5106ZM105.632 46.3441C105.632 47.6341 105.427 48.8221 105.054 49.8391C104.681 50.8561 104.139 51.7396 103.458 52.4536C102.773 53.1703 101.938 53.7266 101.013 54.0826C100.098 54.4576 99.0435 54.6601 97.923 54.6601C96.837 54.6601 95.8185 54.4561 94.8675 54.0826C93.9525 53.7076 93.1365 53.1676 92.457 52.4536C91.7775 51.7396 91.269 50.8576 90.897 49.8391C90.525 48.8206 90.3195 47.6641 90.3195 46.3441C90.3195 45.0541 90.5235 43.8661 90.897 42.8491C91.2705 41.8321 91.812 40.9486 92.493 40.2346C93.1789 39.5265 93.9981 38.9611 94.9035 38.5711C95.8185 38.1961 96.8535 37.9936 97.959 37.9936C99.0645 37.9936 100.098 38.1976 101.014 38.5711C101.931 38.9446 102.745 39.5221 103.425 40.2361C104.104 40.9501 104.647 41.8321 105.021 42.8506C105.429 43.9036 105.632 45.0556 105.632 46.3456V46.3441ZM101.692 46.3456C101.692 44.8516 101.353 43.6636 100.708 42.7126C100.063 41.7616 99.1485 41.2876 97.9245 41.2876C96.7005 41.2876 95.82 41.7631 95.175 42.6796C94.5645 43.6306 94.26 44.8546 94.26 46.3456C94.26 47.8051 94.566 48.9931 95.211 49.9786C95.8215 50.9296 96.741 51.4036 97.926 51.4036C99.1815 51.4036 100.131 50.9281 100.746 50.0116C101.391 49.0966 101.697 47.8726 101.697 46.3456H101.692ZM122.952 46.0066C122.952 47.5006 122.748 48.7906 122.374 49.9111C122.001 51.0316 121.493 51.9136 120.844 52.6261C120.197 53.3386 119.487 53.8486 118.639 54.1861C117.792 54.5236 116.941 54.6961 115.992 54.6961C115.212 54.6961 114.532 54.6286 113.922 54.5266L112.293 54.0856V60.1966L108.354 60.7741V38.3626H111.714L112.089 40.5676C112.666 39.9226 113.344 39.3451 114.126 38.8021C114.906 38.2921 115.857 38.0221 116.976 38.0221C117.781 38.0189 118.579 38.1807 119.319 38.4976C120.031 38.8366 120.676 39.3121 121.219 39.9571C121.762 40.6021 122.203 41.4511 122.509 42.4351C122.78 43.4551 122.951 44.6401 122.951 46.0006L122.952 46.0066ZM118.978 46.2376C118.978 44.6776 118.708 43.5226 118.129 42.7426C117.55 41.9626 116.805 41.5876 115.924 41.5876C115.212 41.5876 114.567 41.7916 113.974 42.1981C113.382 42.6046 112.819 43.1491 112.309 43.8631V50.7901C112.785 51.0271 113.26 51.1981 113.701 51.3331C114.143 51.4351 114.686 51.5026 115.367 51.5026C116.386 51.5026 117.267 51.0616 117.947 50.2126C118.626 49.3306 118.966 48.0076 118.966 46.2406L118.978 46.2376ZM133.735 54.9316L134.822 54.7621L134.311 51.4021C133.972 51.5041 133.564 51.5371 133.021 51.5371C132.241 51.5371 131.697 51.3676 131.356 51.0271C131.016 50.6866 130.881 50.1781 130.881 49.5331V41.8951H134.718L134.208 38.6356H130.875V32.9326L126.903 33.5431V38.6356H124.629V41.8951H126.903V50.1451C126.903 51.0601 127.038 51.8101 127.278 52.4551C127.548 53.0656 127.889 53.5756 128.364 53.9491C128.856 54.3334 129.422 54.6108 130.027 54.7636C130.672 54.9331 131.419 55.0006 132.202 55.0006L133.732 54.9331L133.735 54.9316ZM141.948 33.5776C141.948 34.2571 141.711 34.8001 141.235 35.2066C140.76 35.6131 140.215 35.8516 139.57 35.8516C139.259 35.8619 138.948 35.8101 138.657 35.6994C138.365 35.5887 138.099 35.4212 137.872 35.2066C137.397 34.7986 137.16 34.2226 137.16 33.5776C137.16 32.8981 137.397 32.3221 137.872 31.8796C138.099 31.665 138.365 31.4975 138.657 31.3868C138.948 31.2761 139.259 31.2244 139.57 31.2346C140.215 31.2346 140.758 31.4386 141.235 31.8796C141.712 32.3206 141.948 32.8996 141.948 33.5776ZM137.58 54.6601H141.585V38.5351H137.58V54.6601ZM155.064 54.3211C155.913 54.0841 156.762 53.6761 157.576 53.0986L157.033 49.7041C156.286 50.2816 155.574 50.6881 154.929 50.8921C154.284 51.0961 153.604 51.2311 152.892 51.2311C152.331 51.2468 151.774 51.1462 151.254 50.9359C150.734 50.7255 150.263 50.4098 149.871 50.0086C149.091 49.1941 148.683 47.9716 148.683 46.3081C148.683 44.7121 149.058 43.5241 149.804 42.6751C150.551 41.8606 151.501 41.4196 152.653 41.4196C153.433 41.4196 154.147 41.5546 154.828 41.7946C155.509 42.0346 156.186 42.4051 156.865 42.9151L157.443 39.3496C156.798 38.9416 156.085 38.6371 155.268 38.3656C154.453 38.1286 153.503 37.9906 152.448 37.9906C151.394 37.9906 150.378 38.1601 149.46 38.5336C148.509 38.8726 147.694 39.4156 147.015 40.1296C146.302 40.8421 145.759 41.7256 145.35 42.7771C144.94 43.8286 144.739 45.0511 144.739 46.4431C144.739 47.7331 144.943 48.9211 145.317 49.9381C145.69 50.9551 146.232 51.8386 146.877 52.5181C147.556 53.2306 148.336 53.7406 149.287 54.1141C150.202 54.4891 151.237 54.6571 152.343 54.6571C153.26 54.668 154.174 54.5539 155.06 54.3181L155.064 54.3211ZM172.51 49.6336C172.51 48.8866 172.408 48.2416 172.204 47.6836C171.993 47.1287 171.642 46.6375 171.186 46.2571C170.71 45.8491 170.1 45.5101 169.353 45.2371C168.606 44.9641 167.724 44.6596 166.671 44.4226C165.448 44.1166 164.634 43.8121 164.261 43.5406C163.853 43.2706 163.65 42.8956 163.65 42.4876C163.643 42.2803 163.689 42.0748 163.784 41.8904C163.88 41.7061 164.02 41.5492 164.193 41.4346C164.568 41.1646 165.144 41.0266 165.891 41.0266C166.705 41.0266 167.556 41.1616 168.471 41.4346C169.386 41.7076 170.236 42.0451 171.051 42.4876L171.594 39.1606C169.929 38.4136 168.028 38.0401 165.891 38.0401C163.99 38.0401 162.496 38.4811 161.478 39.3646C160.425 40.2466 159.918 41.3671 159.918 42.7591C159.918 43.5061 160.02 44.1166 160.224 44.6266C160.437 45.1522 160.775 45.6182 161.208 45.9841C161.649 46.3591 162.228 46.6966 162.939 47.0041C163.651 47.2741 164.499 47.5471 165.486 47.7841L167.115 48.2251C167.556 48.3601 167.862 48.5311 168.135 48.7006C168.372 48.8701 168.543 49.0396 168.645 49.2781C168.747 49.4821 168.78 49.7536 168.78 50.0251C168.78 50.5351 168.543 50.9401 168.101 51.2476C167.625 51.5536 166.98 51.6886 166.098 51.6886C165.078 51.6886 164.061 51.5191 163.042 51.1786C162.024 50.8381 161.04 50.3641 160.192 49.7866L159.649 53.1136C160.429 53.5216 161.38 53.8936 162.499 54.1996C163.618 54.5056 164.773 54.6751 165.964 54.6751C168.103 54.6751 169.767 54.2341 170.854 53.3506C171.975 52.4686 172.52 51.2116 172.52 49.6006" fill="#444444"/>
</svg>
