<svg width="70" height="70" viewBox="0 0 70 70" fill="none" xmlns="http://www.w3.org/2000/svg">
<g clip-path="url(#clip0_15_1327)">
<path d="M21.1474 19.1365C20.6878 18.8056 20.0472 18.9094 19.7159 19.3686C15.7247 24.9063 15.3503 32.303 18.7624 38.2128C23.2473 46.3331 34.3745 49.4169 42.4811 44.5682C50.7725 39.7811 53.6234 29.141 48.8363 20.8496C46.5174 16.833 42.7731 13.9599 38.2932 12.7595C33.1574 11.3632 27.6239 12.4481 23.3208 15.6841C22.8688 16.0253 22.779 16.6682 23.1201 17.1203C23.4613 17.5724 24.1043 17.6621 24.5563 17.321C28.1888 14.524 33.2733 13.4968 37.7625 14.7406C41.7131 15.799 45.0153 18.3328 47.0603 21.8751C51.2819 29.1872 48.7677 38.5706 41.4557 42.7924C34.4974 47.0252 24.4944 44.4199 20.5385 37.1875C17.5292 31.9755 17.8594 25.4518 21.3795 20.5678C21.7106 20.1084 21.6066 19.4676 21.1474 19.1365Z" fill="#96CEBC"/>
<path d="M68.116 49.6933C68.6824 49.6933 69.1414 49.2343 69.1414 48.6679V46.1426C69.1414 44.9512 68.2651 43.9634 67.124 43.7824V17.7734C67.124 17.207 66.665 16.748 66.0986 16.748C65.5321 16.748 65.0732 17.207 65.0732 17.7734V43.75H61.6697V28.8889C62.6671 28.6005 63.3991 27.6809 63.3991 26.5918V16.748C63.3991 15.6591 62.6669 14.7395 61.6697 14.4509V7.4148C61.6697 5.71867 60.2897 4.33863 58.5935 4.33863H56.0497V3.75977C56.0497 3.14453 55.9003 2.56389 55.6371 2.05078H63.3642C64.3066 2.05078 65.0732 2.81736 65.0732 3.75977V12.9883C65.0732 13.5547 65.5321 14.0137 66.0986 14.0137C66.665 14.0137 67.124 13.5547 67.124 12.9883V3.75977C67.124 1.6867 65.4373 0 63.3642 0C54.5225 0 19.3082 0 9.85056 0C7.77749 0 6.09079 1.6867 6.09079 3.75977V6.91291H4.61833C2.54527 6.91291 0.858566 8.59961 0.858566 10.6727C0.858566 12.7457 2.54527 14.4324 4.61833 14.4324H6.09079V19.2176H4.61833C2.54527 19.2176 0.858566 20.9043 0.858566 22.9774C0.858566 25.0504 2.54527 26.7371 4.61833 26.7371H6.09079V31.5223H4.61833C2.54527 31.5223 0.858566 33.209 0.858566 35.2821C0.858566 37.3551 2.54527 39.0418 4.61833 39.0418H6.09079V43.827H4.61833C2.54527 43.827 0.858566 45.5137 0.858566 47.5867C0.858566 49.6598 2.54527 51.3465 4.61833 51.3465H6.09079V56.1317H4.61833C2.54527 56.1317 0.858566 57.8184 0.858566 59.8914C0.858566 61.9645 2.54527 63.6512 4.61833 63.6512H6.09079V66.2402C6.09079 68.3133 7.77749 70 9.85056 70H17.5697C18.1361 70 18.5951 69.541 18.5951 68.9746C18.5951 68.4082 18.1361 67.9492 17.5697 67.9492H9.85056C8.90816 67.9492 8.14157 67.1826 8.14157 66.2402V63.6512H9.8079C11.881 63.6512 13.5677 61.9645 13.5677 59.8914C13.5677 57.8184 11.881 56.1317 9.8079 56.1317H8.14157V51.3465H9.8079C11.881 51.3465 13.5677 49.6598 13.5677 47.5867C13.5677 45.5137 11.881 43.827 9.8079 43.827H8.14157V39.0418H9.8079C11.881 39.0418 13.5677 37.3551 13.5677 35.2821C13.5677 33.209 11.881 31.5223 9.8079 31.5223H8.14157V26.7371H9.8079C11.881 26.7371 13.5677 25.0504 13.5677 22.9774C13.5677 20.9043 11.881 19.2176 9.8079 19.2176H8.14157V14.4324H9.8079C11.881 14.4324 13.5677 12.7457 13.5677 10.6727C13.5677 8.59961 11.881 6.91291 9.8079 6.91291H8.14157V3.75977C8.14157 2.81736 8.90816 2.05078 9.85056 2.05078H52.29C53.2324 2.05078 53.999 2.81736 53.999 3.75977V66.2402C53.999 67.1826 53.2324 67.9492 52.29 67.9492H22.3628C21.7964 67.9492 21.3374 68.4082 21.3374 68.9746C21.3374 69.541 21.7964 70 22.3628 70H63.3642C65.4373 70 67.124 68.3133 67.124 66.2402V58.3465C68.2651 58.1656 69.1414 57.1777 69.1414 55.9863V53.461C69.1414 52.8946 68.6824 52.4356 68.116 52.4356C67.5496 52.4356 67.0906 52.8946 67.0906 53.461V55.9863C67.0906 56.1749 66.9373 56.3281 66.7488 56.3281H61.6697V45.8008H66.7487C66.9372 45.8008 67.0905 45.954 67.0905 46.1426V48.6679C67.0906 49.2342 67.5496 49.6933 68.116 49.6933ZM11.5168 59.8914C11.5168 60.8338 10.7502 61.6004 9.80777 61.6004H4.61833C3.67593 61.6004 2.90935 60.8338 2.90935 59.8914C2.90935 58.949 3.67593 58.1824 4.61833 58.1824H9.80777C10.7502 58.1824 11.5168 58.9492 11.5168 59.8914ZM11.5168 47.5867C11.5168 48.5291 10.7502 49.2957 9.80777 49.2957H4.61833C3.67593 49.2957 2.90935 48.5291 2.90935 47.5867C2.90935 46.6443 3.67593 45.8778 4.61833 45.8778H9.80777C10.7502 45.8778 11.5168 46.6445 11.5168 47.5867ZM11.5168 35.2821C11.5168 36.2245 10.7502 36.991 9.80777 36.991H4.61833C3.67593 36.991 2.90935 36.2245 2.90935 35.2821C2.90935 34.3396 3.67593 33.5731 4.61833 33.5731H9.80777C10.7502 33.5731 11.5168 34.3398 11.5168 35.2821ZM11.5168 22.9774C11.5168 23.9198 10.7502 24.6863 9.80777 24.6863H4.61833C3.67593 24.6863 2.90935 23.9198 2.90935 22.9774C2.90935 22.035 3.67593 21.2684 4.61833 21.2684H9.80777C10.7502 21.2684 11.5168 22.0351 11.5168 22.9774ZM11.5168 10.6727C11.5168 11.6151 10.7502 12.3817 9.80777 12.3817H4.61833C3.67593 12.3817 2.90935 11.6151 2.90935 10.6727C2.90935 9.73027 3.67593 8.96369 4.61833 8.96369H9.80777C10.7502 8.96369 11.5168 9.73041 11.5168 10.6727ZM61.0066 16.4062C61.1951 16.4062 61.3484 16.5595 61.3484 16.748V26.5918C61.3484 26.7803 61.1951 26.9336 61.0066 26.9336H56.0497V16.4062H61.0066ZM56.0497 28.9844H59.6189V62.6172C59.6189 63.1827 59.159 63.6426 58.5935 63.6426H56.0497V28.9844ZM58.5935 6.38941C59.159 6.38941 59.6189 6.84934 59.6189 7.4148V14.3555H56.0497V6.38941H58.5935ZM65.0732 58.3789V66.2402C65.0732 67.1826 64.3066 67.9492 63.3642 67.9492H55.6371C55.9002 67.4361 56.0497 66.8555 56.0497 66.2402V65.6934H58.5935C60.2897 65.6934 61.6697 64.3133 61.6697 62.6172V58.3789H65.0732Z" fill="#96CEBC"/>
<path d="M25.1573 36.4727C25.1564 36.4795 25.1556 36.4865 25.1547 36.4933L24.9814 37.9959C24.9185 38.5403 25.0925 39.0863 25.4591 39.4936C25.8217 39.8967 26.339 40.1269 26.8805 40.1269H26.8982L40.736 39.9982C41.2769 39.9932 41.7926 39.7578 42.1507 39.3525C42.5089 38.9473 42.6791 38.4068 42.6178 37.8697L42.4612 36.4945C42.4602 36.4872 42.4592 36.4799 42.4583 36.4725C42.2572 34.9943 41.2683 33.7412 39.8776 33.202L38.0938 32.5102C39.6475 30.9949 40.711 28.6893 40.9318 26.0315C41.1791 25.8353 41.3638 25.5587 41.4415 25.2308C41.6944 24.1618 42.096 21.4533 40.3681 19.397C40.368 19.397 40.3677 19.3966 40.3676 19.3965C40.0801 19.0546 39.2053 18.014 37.6435 17.6287C36.6744 17.3593 35.4665 17.683 34.2144 17.2999C33.0319 16.9607 31.7904 16.9327 30.6238 17.2187C29.692 17.4474 27.9413 18.0936 26.6846 19.8511C25.5961 21.3733 25.3254 23.2603 25.9016 25.3077C25.9954 25.641 26.2042 25.9198 26.4767 26.1073C26.7144 28.7668 27.7981 31.069 29.3699 32.5689L27.7378 33.2018C26.3473 33.7413 25.3584 34.9945 25.1573 36.4727ZM28.353 21.0441C29.2254 19.824 30.4567 19.3716 31.1127 19.2106C31.7741 19.0521 32.7112 18.998 33.6494 19.2713C34.6988 19.6468 35.9156 19.466 37.1525 19.62C38.0658 19.8451 38.579 20.4557 38.798 20.7164L38.7983 20.7168C39.7201 21.814 39.6896 23.3017 39.5484 24.2288C38.745 24.0562 38.3272 23.5775 37.6608 22.6388C37.1763 21.9566 36.4201 21.5192 35.586 21.4389C34.7577 21.3598 33.9369 21.6417 33.3363 22.2144C31.8447 23.6362 29.565 24.2171 27.7662 24.3022C27.5085 23.0444 27.7052 21.9501 28.353 21.0441ZM28.5601 26.2953C30.2029 26.1254 32.8055 25.5534 34.7513 23.6986C34.9836 23.4774 35.251 23.4668 35.3896 23.4802C35.5313 23.4938 35.7975 23.5569 35.9887 23.8259C36.7355 24.8778 37.4907 25.7895 38.8575 26.1679C38.453 29.6484 36.2589 32.3533 33.7012 32.3533C31.1771 32.3535 29.0031 29.7129 28.5601 26.2953ZM28.4796 35.1141L31.4684 33.955C32.1721 34.2455 32.9217 34.4043 33.701 34.4043C34.5186 34.4043 35.3036 34.2301 36.0367 33.9122L39.1362 35.1142C39.8284 35.3826 40.3214 36.0047 40.425 36.7393L40.5629 37.9491L27.0367 38.0749L27.1908 36.7398C27.2941 36.005 27.7871 35.3826 28.4796 35.1141Z" fill="#96CEBC"/>
<path d="M44.9422 53.457H22.6571C22.0906 53.457 21.6317 53.916 21.6317 54.4824C21.6317 55.0488 22.0906 55.5078 22.6571 55.5078H44.9422C45.5086 55.5078 45.9676 55.0488 45.9676 54.4824C45.9676 53.916 45.5085 53.457 44.9422 53.457Z" fill="#96CEBC"/>
<path d="M44.9422 57.6953H39.6102C39.0438 57.6953 38.5848 58.1543 38.5848 58.7207C38.5848 59.2871 39.0438 59.7461 39.6102 59.7461H44.9422C45.5086 59.7461 45.9676 59.2871 45.9676 58.7207C45.9676 58.1543 45.5085 57.6953 44.9422 57.6953Z" fill="#96CEBC"/>
<path d="M22.6571 57.6953C22.0906 57.6953 21.6317 58.1543 21.6317 58.7207C21.6317 59.2871 22.0906 59.7461 22.6571 59.7461H34.825C35.3915 59.7461 35.8504 59.2871 35.8504 58.7207C35.8504 58.1543 35.3915 57.6953 34.825 57.6953H22.6571Z" fill="#96CEBC"/>
</g>
<defs>
<clipPath id="clip0_15_1327">
<rect width="70" height="70" fill="white"/>
</clipPath>
</defs>
</svg>
