<svg width="70" height="70" viewBox="0 0 70 70" fill="none" xmlns="http://www.w3.org/2000/svg">
<path d="M65.3967 9.35284H4.60332C2.06514 9.35284 0 11.418 0 13.9562V56.0438C0 58.5821 2.06514 60.6471 4.60332 60.6471H65.3967C67.935 60.6471 70 58.582 70 56.0438V13.9562C70 11.418 67.9349 9.35284 65.3967 9.35284ZM16.3674 58.4551H4.60332C3.27373 58.4551 2.19201 57.3734 2.19201 56.0438V13.9562C2.19201 12.6266 3.27373 11.5449 4.60332 11.5449H16.3674V58.4551ZM67.808 56.0439C67.808 57.3735 66.7263 58.4552 65.3967 58.4552H18.5596V11.545H65.3967C66.7263 11.545 67.808 12.6267 67.808 13.9563V56.0439Z" fill="#96CEBC"/>
<path d="M26.8163 14.0292H22.1398C21.5345 14.0292 21.0437 14.5199 21.0437 15.1253C21.0437 15.7307 21.5344 16.2214 22.1398 16.2214H26.8163C27.4215 16.2214 27.9123 15.7307 27.9123 15.1253C27.9123 14.5199 27.4215 14.0292 26.8163 14.0292Z" fill="#96CEBC"/>
<path d="M12.787 14.0292H5.77242C5.16717 14.0292 4.67635 14.5199 4.67635 15.1253C4.67635 15.7307 5.16703 16.2214 5.77242 16.2214H12.787C13.3923 16.2214 13.8831 15.7307 13.8831 15.1253C13.8831 14.5199 13.3924 14.0292 12.787 14.0292Z" fill="#96CEBC"/>
<path d="M12.787 25.7202H5.77242C5.16717 25.7202 4.67635 26.2109 4.67635 26.8163C4.67635 27.4217 5.16703 27.9124 5.77242 27.9124H12.787C13.3923 27.9124 13.8831 27.4217 13.8831 26.8163C13.8831 26.2109 13.3924 25.7202 12.787 25.7202Z" fill="#96CEBC"/>
<path d="M12.787 35.073H5.77242C5.16717 35.073 4.67635 35.5637 4.67635 36.1691C4.67635 36.7745 5.16703 37.2651 5.77242 37.2651H12.787C13.3923 37.2651 13.8831 36.7745 13.8831 36.1691C13.8831 35.5637 13.3924 35.073 12.787 35.073Z" fill="#96CEBC"/>
<path d="M12.787 44.426H5.77242C5.16717 44.426 4.67635 44.9166 4.67635 45.522C4.67635 46.1274 5.16703 46.6181 5.77242 46.6181H12.787C13.3923 46.6181 13.8831 46.1274 13.8831 45.522C13.8831 44.9166 13.3924 44.426 12.787 44.426Z" fill="#96CEBC"/>
<path d="M12.787 30.3967H5.77242C5.16717 30.3967 4.67635 30.8874 4.67635 31.4927C4.67635 32.0981 5.16703 32.5888 5.77242 32.5888H12.787C13.3923 32.5888 13.8831 32.0981 13.8831 31.4927C13.8831 30.8874 13.3924 30.3967 12.787 30.3967Z" fill="#96CEBC"/>
<path d="M12.787 39.7495H5.77242C5.16717 39.7495 4.67635 40.2401 4.67635 40.8455C4.67635 41.4509 5.16703 41.9416 5.77242 41.9416H12.787C13.3923 41.9416 13.8831 41.4509 13.8831 40.8455C13.8831 40.2401 13.3924 39.7495 12.787 39.7495Z" fill="#96CEBC"/>
<path d="M10.4489 51.4406H5.77242C5.16717 51.4406 4.67635 51.9313 4.67635 52.5367C4.67635 53.1419 5.16703 53.6328 5.77242 53.6328H10.4489C11.0541 53.6328 11.545 53.1421 11.545 52.5367C11.545 51.9313 11.0541 51.4406 10.4489 51.4406Z" fill="#96CEBC"/>
<path d="M10.4489 18.7056H5.77242C5.16717 18.7056 4.67635 19.1963 4.67635 19.8016C4.67635 20.407 5.16703 20.8977 5.77242 20.8977H10.4489C11.0541 20.8977 11.545 20.407 11.545 19.8016C11.545 19.1963 11.0541 18.7056 10.4489 18.7056Z" fill="#96CEBC"/>
<path d="M36.1691 14.0292H31.4926C30.8874 14.0292 30.3966 14.5199 30.3966 15.1253C30.3966 15.7307 30.8872 16.2214 31.4926 16.2214H36.1691C36.7743 16.2214 37.2652 15.7307 37.2652 15.1253C37.2652 14.5199 36.7745 14.0292 36.1691 14.0292Z" fill="#96CEBC"/>
<path d="M45.5218 14.0292H40.8454C40.2401 14.0292 39.7493 14.5199 39.7493 15.1253C39.7493 15.7307 40.24 16.2214 40.8454 16.2214H45.5218C46.1271 16.2214 46.6179 15.7307 46.6179 15.1253C46.6179 14.5199 46.1272 14.0292 45.5218 14.0292Z" fill="#96CEBC"/>
<path d="M54.8749 14.0292H50.1984C49.5931 14.0292 49.1023 14.5199 49.1023 15.1253C49.1023 15.7307 49.593 16.2214 50.1984 16.2214H54.8749C55.4801 16.2214 55.9709 15.7307 55.9709 15.1253C55.9709 14.5199 55.4801 14.0292 54.8749 14.0292Z" fill="#96CEBC"/>
<path d="M64.2276 14.0292H59.5511C58.9459 14.0292 58.4551 14.5199 58.4551 15.1253C58.4551 15.7307 58.9457 16.2214 59.5511 16.2214H64.2276C64.8329 16.2214 65.3237 15.7307 65.3237 15.1253C65.3237 14.5199 64.8329 14.0292 64.2276 14.0292Z" fill="#96CEBC"/>
<path d="M34.4895 38.8004C34.0056 38.4368 33.3184 38.5344 32.955 39.0184C32.0477 40.2261 30.6625 40.9187 29.1545 40.9187C26.5357 40.9187 24.405 38.7881 24.405 36.1692C24.405 33.5504 26.5357 31.4197 29.1545 31.4197C30.6636 31.4197 32.0497 32.1133 32.9567 33.3224C33.3199 33.8066 34.0069 33.9049 34.491 33.5415C34.9752 33.1781 35.0732 32.4912 34.7101 32.0071C33.3849 30.2407 31.36 29.2277 29.1544 29.2277C25.3269 29.2277 22.2129 32.3418 22.2129 36.1692C22.2129 39.9966 25.3269 43.1107 29.1544 43.1107C31.3583 43.1107 33.3823 42.099 34.7075 40.3349C35.0713 39.8509 34.9737 39.1639 34.4895 38.8004Z" fill="#96CEBC"/>
<path d="M45.3018 38.3354C47.3863 37.8966 48.9563 36.0439 48.9563 33.8307C48.9563 31.2924 46.8911 29.2274 44.353 29.2274H38.5074C37.9022 29.2274 37.4113 29.7181 37.4113 30.3235V42.0145C37.4113 42.6197 37.902 43.1105 38.5074 43.1105C39.1128 43.1105 39.6035 42.6199 39.6035 42.0145V38.4341H42.6359L45.8143 42.6721C46.0298 42.9592 46.3589 43.1105 46.6921 43.1105C46.9209 43.1105 47.1517 43.039 47.3489 42.8914C47.833 42.5282 47.9313 41.8411 47.568 41.357L45.3018 38.3354ZM39.6033 36.2422V31.4197H44.3528C45.6824 31.4197 46.7641 32.5014 46.7641 33.831C46.7641 35.1606 45.6824 36.2423 44.3528 36.2423H39.6033V36.2422Z" fill="#96CEBC"/>
<path d="M64.1491 41.9054L62.98 30.2146C62.9297 29.7122 62.5428 29.3091 62.0428 29.2384C61.5434 29.1676 61.0593 29.4477 60.8718 29.9167L57.213 39.0636L53.5541 29.9167C53.3665 29.4479 52.8831 29.1683 52.3831 29.2384C51.8831 29.3091 51.4962 29.7122 51.4459 30.2146L50.2768 41.9055C50.2167 42.5079 50.6561 43.045 51.2584 43.1053C51.8601 43.1654 52.3977 42.726 52.4582 42.1236L53.1818 34.8875L56.1955 42.4217C56.362 42.8377 56.7648 43.1106 57.2131 43.1106C57.6614 43.1106 58.0643 42.8377 58.2307 42.4217L61.2444 34.8875L61.968 42.1236C62.0246 42.6888 62.501 43.1106 63.0574 43.1106C63.0939 43.1106 63.1307 43.1088 63.1677 43.105C63.7698 43.045 64.2093 42.5078 64.1491 41.9054Z" fill="#96CEBC"/>
</svg>
