<svg width="134" height="67" viewBox="0 0 134 67" fill="none" xmlns="http://www.w3.org/2000/svg">
<path d="M23.0662 20.5439H44.2833C44.2655 18.8496 42.977 17.6389 41.3892 17.6389H20.1721C21.7599 17.6389 23.0484 18.8496 23.0662 20.5439Z" fill="#E2D9C5"/>
<path d="M38.4835 20.5077C38.4835 18.9233 39.7795 17.6389 41.3783 17.6389H20.1619C18.5631 17.6389 17.2671 18.9233 17.2671 20.5077V44.0741H35.5887C37.1875 44.0741 38.4835 42.7897 38.4835 41.2053V20.5077Z" fill="#F2EBDA"/>
<path d="M38.0164 17.64C36.4131 17.64 35.1134 18.9331 35.1134 20.5284V41.3678C35.1134 42.9631 33.8137 44.2562 32.2104 44.2562H35.7353C37.3386 44.2562 38.6383 42.9631 38.6383 41.3678V20.5284C38.6383 18.9331 39.938 17.64 41.5413 17.64H38.0164Z" fill="#E2D9C5"/>
<path d="M32.7684 41.1958H11.4918C11.5097 42.9807 12.8018 44.2562 14.394 44.2562H35.6706C34.0783 44.2561 32.7862 42.9807 32.7684 41.1958Z" fill="#E2D9C5"/>
<path d="M31.2109 35.9402C31.7986 34.1224 32.3271 32.2659 33.5757 30.8479C36.303 27.7507 41.7702 26.8407 45.7357 26.9423C44.4949 27.9615 43.4133 28.9924 42.1598 30.3418C40.7546 31.8547 37.6883 33.8679 36.2128 34.3194C33.9146 35.0226 32.8513 35.1401 31.2109 35.9402Z" fill="#DDA064"/>
<path d="M31.2109 35.9402C31.7986 34.1211 41.7702 26.8342 45.7357 26.9358C44.4949 27.9558 43.4133 28.9874 42.1598 30.3378C40.7546 31.8518 37.6883 33.8665 36.2128 34.3183C33.9146 35.0219 32.8513 35.1395 31.2109 35.9402Z" fill="#B57947"/>
<path fill-rule="evenodd" clip-rule="evenodd" d="M53.8115 49.6516C48.7569 49.6516 44.9659 45.5992 44.9659 39.8473C44.9659 34.3134 48.9748 29.8688 54.1166 29.8688C56.5567 29.8688 58.3433 30.7839 59.4326 31.6989V21.4154H56.5567V17.4065H64.1823V45.3813H67.0146V49.303H59.4326V47.2114C58.0383 48.5622 56.2517 49.6516 53.8115 49.6516ZM54.9009 45.5556C56.6875 45.5556 58.1254 44.7713 59.4326 43.6383V35.4463C58.169 34.5748 56.6875 33.9648 54.9009 33.9648C52.2429 33.9648 49.8463 36.0128 49.8463 39.8038C49.8463 43.464 52.1121 45.5556 54.9009 45.5556ZM76.6591 49.6516C70.3408 49.6516 66.5062 45.0763 66.5062 39.7602C66.5062 34.5313 70.4279 29.8688 76.6591 29.8688C82.9773 29.8688 86.8119 34.4441 86.8119 39.7602C86.8119 44.9891 82.8902 49.6516 76.6591 49.6516ZM76.6591 45.6863C79.7528 45.6863 81.9316 43.2461 81.9316 39.7602C81.9316 36.2742 79.7528 33.8341 76.6591 33.8341C73.5653 33.8341 71.3866 36.2742 71.3866 39.7602C71.3866 43.2461 73.5653 45.6863 76.6591 45.6863ZM97.415 49.6516C91.4017 49.6516 86.87 45.7299 86.87 39.5859C86.87 34.6184 90.8788 29.8688 96.5435 29.8688C101.772 29.8688 105.215 33.2676 105.215 36.2742C105.215 38.2787 103.864 39.4987 102.165 39.4987C100.596 39.4987 99.2887 38.1915 99.2887 36.6228C99.2887 36.0564 99.5501 35.4028 99.8987 35.0106C99.5501 34.5313 98.3736 33.7034 96.4999 33.7034C94.3212 33.7034 91.6196 35.4899 91.6196 39.673C91.6196 43.3333 94.4084 45.6427 97.8072 45.6427C100.117 45.6427 102.121 44.9891 104.605 43.6383L104.213 47.9086C102.165 49.0851 100.204 49.6516 97.415 49.6516ZM105.186 49.303V46.5142L116.689 33.9648H109.935V37.4943H105.883V30.2174H122.616V32.9626L111.112 45.512H118.825V41.9825H122.833V49.303H105.186Z" fill="#1F2D3D"/>
<path d="M36.4398 22.7225C36.4398 22.4818 36.2108 22.2867 35.9284 22.2867H25.0409C24.7584 22.2867 24.5295 22.4818 24.5295 22.7225C24.5295 22.9631 24.7584 23.1582 25.0409 23.1582H35.9283C36.2108 23.1582 36.4398 22.9631 36.4398 22.7225Z" fill="#1F2D3D"/>
<path d="M20.4223 23.1582H22.2457C22.5444 23.1582 22.7865 22.9631 22.7865 22.7225C22.7865 22.4818 22.5444 22.2867 22.2457 22.2867H20.4223C20.1236 22.2867 19.8815 22.4818 19.8815 22.7225C19.8815 22.9631 20.1236 23.1582 20.4223 23.1582Z" fill="#1F2D3D"/>
<path d="M20.3945 37.9736C20.1112 37.9736 19.8815 38.1687 19.8815 38.4094C19.8815 38.6501 20.1112 38.8451 20.3945 38.8451H25.7595C26.0428 38.8451 26.2724 38.65 26.2724 38.4094C26.2724 38.1687 26.0428 37.9736 25.7595 37.9736H20.3945Z" fill="#1F2D3D"/>
<path d="M28.5964 33.7615C28.5964 33.5207 28.3622 33.3257 28.0732 33.3257H20.4047C20.1158 33.3257 19.8815 33.5208 19.8815 33.7615C19.8815 34.0022 20.1158 34.1972 20.4047 34.1972H28.0732C28.3621 34.1972 28.5964 34.0021 28.5964 33.7615Z" fill="#1F2D3D"/>
<path d="M32.3729 28.5325C32.3729 28.2918 32.1378 28.0968 31.8478 28.0968H20.4066C20.1166 28.0968 19.8815 28.2919 19.8815 28.5325C19.8815 28.7732 20.1166 28.9683 20.4066 28.9683H31.8478C32.1378 28.9684 32.3729 28.7733 32.3729 28.5325Z" fill="#1F2D3D"/>
<path d="M38.5927 35.0257C38.3108 35.0257 38.0822 35.257 38.0822 35.5425V41.805C38.0822 43.127 37.02 44.2024 35.7144 44.2024H35.6502C34.3151 44.2024 33.2975 43.0949 33.2831 41.6263C33.2803 41.3429 33.0526 41.1146 32.7727 41.1146H18.0076V20.7794C18.0076 19.4574 19.0698 18.382 20.3754 18.382H39.0489C39.0339 18.3975 39.0198 18.4137 39.0051 18.4296C38.9873 18.4488 38.9693 18.4678 38.9519 18.4874C38.9334 18.5081 38.9157 18.5294 38.8978 18.5506C38.8806 18.5709 38.8632 18.591 38.8465 18.6117C38.8292 18.6332 38.8126 18.6552 38.7957 18.6771C38.7794 18.6984 38.7629 18.7194 38.7471 18.741C38.7309 18.7632 38.7154 18.7858 38.6997 18.8084C38.6842 18.8306 38.6686 18.8526 38.6536 18.8751C38.6386 18.8979 38.6242 18.9212 38.6097 18.9444C38.5953 18.9675 38.5806 18.9903 38.5666 19.0137C38.5526 19.0373 38.5394 19.0613 38.526 19.0852C38.5126 19.109 38.4989 19.1326 38.486 19.1568C38.4731 19.1809 38.4611 19.2057 38.4488 19.2302C38.4365 19.2548 38.4239 19.2791 38.4122 19.3039C38.4004 19.3288 38.3896 19.3542 38.3784 19.3794C38.3672 19.4045 38.3557 19.4295 38.3452 19.4549C38.3345 19.4806 38.3248 19.5067 38.3148 19.5327C38.3048 19.5583 38.2946 19.5837 38.2853 19.6096C38.2757 19.6362 38.2672 19.6632 38.2583 19.6902C38.2497 19.7161 38.2406 19.7417 38.2326 19.7678C38.2242 19.7954 38.2169 19.8234 38.2092 19.8513C38.2019 19.8773 38.1942 19.9032 38.1875 19.9295C38.1802 19.9584 38.1741 19.9877 38.1675 20.0169C38.1617 20.0426 38.1554 20.0682 38.1502 20.094C38.1441 20.1244 38.1392 20.1551 38.1339 20.1858C38.1296 20.2111 38.1245 20.2362 38.1207 20.2617C38.1158 20.2944 38.1123 20.3275 38.1083 20.3605C38.1054 20.3843 38.1018 20.4078 38.0994 20.4318C38.0958 20.4687 38.0935 20.506 38.091 20.5433C38.0897 20.5637 38.0875 20.5841 38.0865 20.6046C38.0836 20.6625 38.0821 20.7208 38.0821 20.7795V20.953V25.3665C38.0821 25.652 38.3106 25.8833 38.5925 25.8833C38.8745 25.8833 39.103 25.6519 39.103 25.3665V21.4698H44.3538C44.49 21.4698 44.6207 21.4146 44.7165 21.3166C44.8124 21.2186 44.8656 21.0858 44.8642 20.9479C44.844 18.8958 43.3875 17.3484 41.4708 17.3484H20.3752C18.5066 17.3484 16.9865 18.8876 16.9865 20.7795V41.1146H11.677C11.5408 41.1146 11.4102 41.1698 11.3143 41.2678C11.2184 41.3658 11.1652 41.4986 11.1667 41.6365C11.1868 43.6886 12.6433 45.236 14.5546 45.236H35.6502H35.7144C37.583 45.236 39.1032 43.6968 39.1032 41.8049V35.5424C39.1032 35.257 38.8746 35.0257 38.5927 35.0257ZM39.1292 20.4253C39.1315 20.4095 39.1343 20.3939 39.137 20.3782C39.1407 20.3562 39.1444 20.3342 39.1487 20.3123C39.1519 20.2956 39.1556 20.2791 39.1592 20.2625C39.1637 20.242 39.1683 20.2216 39.1732 20.2013C39.1775 20.1842 39.1819 20.1672 39.1865 20.1502C39.1917 20.1309 39.1971 20.1115 39.2028 20.0924C39.2079 20.075 39.2132 20.0578 39.2187 20.0407C39.2246 20.0224 39.2307 20.0042 39.237 19.986C39.2431 19.9684 39.2493 19.9509 39.2559 19.9335C39.2623 19.9164 39.269 19.8994 39.2758 19.8824C39.2829 19.8645 39.2901 19.8467 39.2977 19.829C39.3044 19.8132 39.3116 19.7977 39.3186 19.7821C39.327 19.7637 39.3353 19.7452 39.3441 19.7271C39.3506 19.7136 39.3576 19.7004 39.3644 19.687C39.3745 19.6672 39.3844 19.6473 39.395 19.6278C39.3991 19.6203 39.4036 19.613 39.4077 19.6055C39.4549 19.521 39.5066 19.4394 39.5632 19.3617C39.5638 19.3609 39.5642 19.3602 39.5648 19.3595C39.583 19.3346 39.6019 19.3101 39.621 19.2859C39.624 19.282 39.6269 19.2781 39.63 19.2742C39.6487 19.2508 39.668 19.2279 39.6875 19.2052C39.6912 19.201 39.6948 19.1968 39.6984 19.1926C39.7183 19.1698 39.7386 19.1476 39.7594 19.1256C39.7628 19.1221 39.7661 19.1184 39.7696 19.1148C39.7911 19.0924 39.813 19.0703 39.8353 19.0486C39.8378 19.0462 39.8403 19.0438 39.8428 19.0413C39.8664 19.0188 39.8903 18.9966 39.9148 18.975C39.9156 18.9742 39.9165 18.9735 39.9173 18.9728C40.2299 18.6971 40.6146 18.5027 41.0391 18.4227C41.0393 18.4226 41.0397 18.4226 41.0397 18.4226C41.0744 18.416 41.1095 18.4102 41.1448 18.4053C41.1469 18.405 41.1491 18.4047 41.1512 18.4045C41.1848 18.3998 41.2187 18.3958 41.2528 18.3925C41.258 18.392 41.2632 18.3918 41.2684 18.3914C41.2996 18.3886 41.3309 18.3863 41.3625 18.3848C41.3807 18.384 41.3991 18.3838 41.4174 18.3833C41.4372 18.3828 41.4568 18.3819 41.4767 18.3819C42.6481 18.3819 43.5752 19.2348 43.7946 20.436H39.1281C39.1283 20.4325 39.1287 20.4289 39.1292 20.4253L39.1292 20.4253ZM14.5545 44.2024C13.3831 44.2024 12.456 43.3495 12.2366 42.1483H17.4971H32.2978C32.3048 42.2018 32.313 42.2548 32.322 42.3074C32.325 42.325 32.3287 42.3423 32.332 42.3599C32.3384 42.3946 32.3449 42.4294 32.3522 42.4637C32.3566 42.4843 32.3615 42.5045 32.3662 42.5249C32.3732 42.5558 32.3804 42.5868 32.3882 42.6173C32.3936 42.6387 32.3996 42.6599 32.4053 42.6811C32.4133 42.7102 32.4213 42.7391 32.4299 42.7679C32.4363 42.7894 32.443 42.8108 32.4498 42.8322C32.4587 42.8601 32.4678 42.888 32.4773 42.9156C32.4846 42.9368 32.492 42.9581 32.4997 42.9791C32.5096 43.0065 32.5199 43.0337 32.5304 43.0607C32.5384 43.0812 32.5464 43.1017 32.5547 43.122C32.5659 43.1494 32.5776 43.1763 32.5894 43.2033C32.5978 43.2227 32.6062 43.2421 32.615 43.2613C32.6279 43.2895 32.6415 43.3173 32.655 43.3451C32.6634 43.3623 32.6715 43.3796 32.6802 43.3967C32.6968 43.4293 32.7142 43.4613 32.7317 43.4933C32.738 43.5049 32.744 43.5167 32.7505 43.5282C32.7748 43.5715 32.7999 43.614 32.8258 43.6559C32.8318 43.6657 32.8383 43.675 32.8444 43.6847C32.8646 43.7168 32.8851 43.7486 32.9063 43.7798C32.916 43.7942 32.9262 43.8082 32.9362 43.8224C32.9544 43.8484 32.9726 43.8744 32.9915 43.8998C33.0029 43.9151 33.0145 43.93 33.0261 43.945C33.0443 43.9688 33.0627 43.9925 33.0815 44.0156C33.0938 44.0309 33.1064 44.0459 33.119 44.0609C33.1378 44.0833 33.1568 44.1055 33.1761 44.1274C33.1891 44.1421 33.2023 44.1567 33.2156 44.1711C33.225 44.1815 33.2341 44.1922 33.2437 44.2024L14.5545 44.2024Z" fill="#1F2D3D"/>
<path d="M46.3162 26.8737C46.3162 26.8677 46.316 26.8617 46.3159 26.8557C46.3139 26.8071 46.305 26.7603 46.2903 26.716C46.2897 26.7138 46.2894 26.7115 46.2885 26.7094C46.288 26.7076 46.2868 26.706 46.2862 26.7042C46.278 26.6815 46.2686 26.6595 46.2575 26.6385C46.2561 26.6359 46.2545 26.6335 46.2532 26.6308C46.2429 26.6123 46.2315 26.5945 46.2191 26.5773C46.2165 26.5737 46.214 26.5699 46.2113 26.5663C46.1976 26.5484 46.1828 26.5315 46.1669 26.5155C46.1634 26.512 46.1597 26.5088 46.1562 26.5054C46.1412 26.4911 46.1254 26.4777 46.1088 26.4653C46.1064 26.4636 46.1045 26.4618 46.1022 26.4601C46.0834 26.4466 46.0636 26.4346 46.0432 26.4236C46.0392 26.4215 46.0353 26.4195 46.0312 26.4175C46.0104 26.4071 45.989 26.3975 45.9666 26.3899C45.9665 26.3898 45.9663 26.3897 45.9663 26.3897C45.9441 26.3822 45.921 26.3765 45.8975 26.3718C45.8923 26.3708 45.8871 26.3699 45.8818 26.3691C45.8583 26.3652 45.8344 26.3623 45.81 26.3617C41.4556 26.2499 35.7778 27.2899 32.9072 30.541C31.6509 31.9639 31.0713 33.769 30.5107 35.5146C30.4648 35.6575 30.419 35.8003 30.3727 35.9429C30.3708 35.9489 30.3689 35.955 30.3672 35.9611L29.4877 39.0602C29.4098 39.3346 29.571 39.6198 29.8476 39.6971C29.8947 39.7103 29.9422 39.7165 29.9889 39.7165C30.2161 39.7165 30.425 39.5676 30.4896 39.3399L31.3053 36.4656C32.3024 36.002 33.1054 35.7851 34.19 35.4926C34.7526 35.3407 35.3903 35.1687 36.162 34.9332C37.8303 34.4241 41.0307 32.2943 42.5036 30.7129C43.7917 29.3298 44.8757 28.3019 46.128 27.276C46.1294 27.2748 46.1306 27.2734 46.132 27.2721C46.1502 27.2568 46.1675 27.2405 46.1835 27.2228C46.1844 27.2217 46.1855 27.2207 46.1865 27.2197C46.2022 27.202 46.2165 27.183 46.2298 27.1632C46.2321 27.1596 46.2345 27.1559 46.2369 27.1522C46.2619 27.1128 46.2816 27.0699 46.2951 27.0243C46.2966 27.0199 46.2978 27.0157 46.2989 27.0113C46.3049 26.9888 46.3099 26.966 46.3129 26.9425C46.313 26.9415 46.313 26.9406 46.3131 26.9397C46.3151 26.9237 46.3164 26.9075 46.3168 26.8912C46.3171 26.8852 46.3166 26.8795 46.3166 26.8737L46.3162 26.8737ZM33.69 31.2214C34.9013 29.8495 36.7578 28.8153 39.2081 28.1477C39.8666 27.9683 40.5625 27.8195 41.2797 27.702C39.4574 28.5787 37.715 29.6769 36.7412 30.3222C35.1698 31.3637 33.4735 32.6271 32.2208 33.7508C32.5915 32.8192 33.0397 31.958 33.69 31.2214ZM41.739 30.0121C40.3055 31.5512 37.2094 33.5331 35.8558 33.9461C35.1005 34.1765 34.4716 34.3463 33.9167 34.496C33.4146 34.6315 32.9578 34.7549 32.5062 34.8972C32.7082 34.7052 32.9451 34.4899 33.2243 34.2482C34.348 33.2758 35.8023 32.1864 37.3194 31.181C39.9461 29.44 42.3231 28.218 44.0671 27.6882C43.3097 28.3803 42.5647 29.1254 41.739 30.0121Z" fill="#1F2D3D"/>
</svg>
