<svg width="70" height="70" viewBox="0 0 70 70" fill="none" xmlns="http://www.w3.org/2000/svg">
<g clip-path="url(#clip0_15_1223)">
<path d="M69.9861 26.761C69.9789 26.6806 69.9629 26.6012 69.9383 26.5242C69.9223 26.4554 69.9 26.3883 69.8718 26.3235C69.8392 26.2602 69.8001 26.2003 69.7552 26.1449C69.7102 26.0791 69.6581 26.0186 69.6 25.964C69.5813 25.9478 69.5732 25.9255 69.5534 25.9092L58.333 17.195V8.16343C58.333 6.2304 56.7659 4.66325 54.8328 4.66325H42.189L37.1264 0.732527C35.8758 -0.242874 34.122 -0.242874 32.8714 0.732527L27.8078 4.66325H15.1639C13.2309 4.66325 11.6637 6.23027 11.6637 8.16343V17.1951L0.446897 25.9093C0.427071 25.9257 0.418868 25.9479 0.400273 25.9642C0.342165 26.0186 0.290072 26.0793 0.245089 26.145C0.200243 26.2004 0.16114 26.2602 0.128462 26.3236C0.10016 26.3883 0.0780106 26.4556 0.0620136 26.5243C0.0376765 26.6002 0.0216796 26.6784 0.0141596 26.7577C0.0141596 26.7822 0.000213623 26.8032 0.000213623 26.8277V66.4996C0.00185433 67.2418 0.241945 67.9637 0.685073 68.5589C0.692046 68.5694 0.693276 68.5822 0.701343 68.5915C0.709547 68.6008 0.727048 68.6114 0.738669 68.6242C1.39413 69.4867 2.41356 69.9952 3.49684 69.9998H66.5C67.5876 69.9965 68.6112 69.4856 69.2675 68.6185C69.2768 68.6069 69.2909 68.6033 69.299 68.5917C69.3072 68.5801 69.3083 68.5695 69.3154 68.559C69.7585 67.9637 69.9986 67.2418 70.0002 66.4998V26.831C70.0001 26.8065 69.9874 26.7855 69.9861 26.761ZM34.2983 2.57354C34.7057 2.24977 35.2827 2.24977 35.6901 2.57354L38.3817 4.66312H31.6148L34.2983 2.57354ZM3.7908 67.6665L34.2984 43.969C34.7061 43.6458 35.2827 43.6458 35.6903 43.969L66.2059 67.6665H3.7908ZM67.6667 65.8475L37.1264 42.1279C35.8755 41.1533 34.1223 41.1533 32.8714 42.1279L2.33002 65.8475V28.6079L21.4492 43.4545C21.9586 43.8495 22.6918 43.7568 23.0868 43.2474C23.4818 42.7379 23.3891 42.0048 22.8796 41.6098L3.45596 26.5276L11.6639 20.1491V29.1644C11.6639 29.8087 12.1863 30.331 12.8306 30.331C13.4749 30.331 13.9972 29.8086 13.9972 29.1644V8.16329C13.9972 7.51891 14.5195 6.99661 15.1639 6.99661H54.8326C55.4769 6.99661 55.9992 7.51891 55.9992 8.16329V29.1644C55.9992 29.8087 56.5215 30.331 57.1659 30.331C57.8103 30.331 58.3326 29.8086 58.3326 29.1644V20.1491L66.5405 26.5276L47.0831 41.6368C46.7484 41.8904 46.5757 42.3044 46.6312 42.7207C46.6867 43.137 46.9617 43.4914 47.3512 43.6485C47.7407 43.8056 48.1847 43.7414 48.5135 43.4801L67.6665 28.6079V65.8475H67.6667Z" fill="white"/>
<path d="M48.999 27.9974V23.3305C48.999 15.5982 42.7306 9.32983 34.9983 9.32983C27.2659 9.32983 20.9976 15.5982 20.9976 23.3305C20.9976 31.0629 27.2659 37.3313 34.9983 37.3313C35.6427 37.3313 36.1649 36.809 36.1649 36.1646C36.1649 35.5202 35.6427 34.9979 34.9983 34.9979C28.5547 34.9979 23.3311 29.7743 23.3311 23.3307C23.3311 16.8871 28.5547 11.6635 34.9983 11.6635C41.4419 11.6635 46.6655 16.8871 46.6655 23.3307V27.9975C46.6655 29.2863 45.6208 30.331 44.332 30.331C43.0432 30.331 41.9985 29.2863 41.9985 27.9975V23.3307C41.9985 22.6863 41.4762 22.164 40.8318 22.164C40.1874 22.164 39.6651 22.6863 39.6651 23.3307C39.6651 25.9081 37.5757 27.9975 34.9983 27.9975C32.4208 27.9975 30.3314 25.9081 30.3314 23.3307C30.3314 20.7533 32.4208 18.6638 34.9983 18.6638C35.6427 18.6638 36.1649 18.1415 36.1649 17.4971C36.1649 16.8528 35.6427 16.3305 34.9983 16.3305C31.8652 16.3235 29.1089 18.3991 28.2503 21.4123C27.3917 24.4254 28.6396 27.6422 31.3057 29.2878C33.9719 30.9335 37.4067 30.6072 39.7153 28.4889C39.9693 30.9563 42.1139 32.7909 44.5908 32.6597C47.0679 32.5285 49.0068 30.4779 48.999 27.9974Z" fill="white"/>
</g>
<defs>
<clipPath id="clip0_15_1223">
<rect width="70" height="70" fill="white"/>
</clipPath>
</defs>
</svg>
