<svg width="70" height="70" viewBox="0 0 70 70" fill="none" xmlns="http://www.w3.org/2000/svg">
<path d="M51.4062 21.875H25.1562C24.8662 21.875 24.588 21.9902 24.3829 22.1954C24.1777 22.4005 24.0625 22.6787 24.0625 22.9688C24.0625 23.2588 24.1777 23.537 24.3829 23.7421C24.588 23.9473 24.8662 24.0625 25.1562 24.0625H51.4062C51.6963 24.0625 51.9745 23.9473 52.1796 23.7421C52.3848 23.537 52.5 23.2588 52.5 22.9688C52.5 22.6787 52.3848 22.4005 52.1796 22.1954C51.9745 21.9902 51.6963 21.875 51.4062 21.875Z" fill="#96CEBC"/>
<path d="M14.2188 30.625H36.0938C36.3838 30.625 36.662 30.5098 36.8671 30.3046C37.0723 30.0995 37.1875 29.8213 37.1875 29.5312C37.1875 29.2412 37.0723 28.963 36.8671 28.7579C36.662 28.5527 36.3838 28.4375 36.0938 28.4375H14.2188C13.9287 28.4375 13.6505 28.5527 13.4454 28.7579C13.2402 28.963 13.125 29.2412 13.125 29.5312C13.125 29.8213 13.2402 30.0995 13.4454 30.3046C13.6505 30.5098 13.9287 30.625 14.2188 30.625Z" fill="#96CEBC"/>
<path d="M44.8438 35H31.7188C31.4287 35 31.1505 35.1152 30.9454 35.3204C30.7402 35.5255 30.625 35.8037 30.625 36.0938C30.625 36.3838 30.7402 36.662 30.9454 36.8671C31.1505 37.0723 31.4287 37.1875 31.7188 37.1875H44.8438C45.1338 37.1875 45.412 37.0723 45.6171 36.8671C45.8223 36.662 45.9375 36.3838 45.9375 36.0938C45.9375 35.8037 45.8223 35.5255 45.6171 35.3204C45.412 35.1152 45.1338 35 44.8438 35Z" fill="#96CEBC"/>
<path d="M42.6562 41.5625H14.2188C13.9287 41.5625 13.6505 41.6777 13.4454 41.8829C13.2402 42.088 13.125 42.3662 13.125 42.6562C13.125 42.9463 13.2402 43.2245 13.4454 43.4296C13.6505 43.6348 13.9287 43.75 14.2188 43.75H42.6562C42.9463 43.75 43.2245 43.6348 43.4296 43.4296C43.6348 43.2245 43.75 42.9463 43.75 42.6562C43.75 42.3662 43.6348 42.088 43.4296 41.8829C43.2245 41.6777 42.9463 41.5625 42.6562 41.5625Z" fill="#96CEBC"/>
<path d="M14.2188 24.0625H20.7812C21.0713 24.0625 21.3495 23.9473 21.5546 23.7421C21.7598 23.537 21.875 23.2588 21.875 22.9688C21.875 22.6787 21.7598 22.4005 21.5546 22.1954C21.3495 21.9902 21.0713 21.875 20.7812 21.875H14.2188C13.9287 21.875 13.6505 21.9902 13.4454 22.1954C13.2402 22.4005 13.125 22.6787 13.125 22.9688C13.125 23.2588 13.2402 23.537 13.4454 23.7421C13.6505 23.9473 13.9287 24.0625 14.2188 24.0625Z" fill="#96CEBC"/>
<path d="M51.4062 28.4375H40.4688C40.1787 28.4375 39.9005 28.5527 39.6954 28.7579C39.4902 28.963 39.375 29.2412 39.375 29.5312C39.375 29.8213 39.4902 30.0995 39.6954 30.3046C39.9005 30.5098 40.1787 30.625 40.4688 30.625H51.4062C51.6963 30.625 51.9745 30.5098 52.1796 30.3046C52.3848 30.0995 52.5 29.8213 52.5 29.5312C52.5 29.2412 52.3848 28.963 52.1796 28.7579C51.9745 28.5527 51.6963 28.4375 51.4062 28.4375Z" fill="#96CEBC"/>
<path d="M14.2188 37.1875H27.3438C27.6338 37.1875 27.912 37.0723 28.1171 36.8671C28.3223 36.662 28.4375 36.3838 28.4375 36.0938C28.4375 35.8037 28.3223 35.5255 28.1171 35.3204C27.912 35.1152 27.6338 35 27.3438 35H14.2188C13.9287 35 13.6505 35.1152 13.4454 35.3204C13.2402 35.5255 13.125 35.8037 13.125 36.0938C13.125 36.3838 13.2402 36.662 13.4454 36.8671C13.6505 37.0723 13.9287 37.1875 14.2188 37.1875Z" fill="#96CEBC"/>
<path d="M42.6562 54.6875H31.7188C31.4287 54.6875 31.1505 54.8027 30.9454 55.0079C30.7402 55.213 30.625 55.4912 30.625 55.7812C30.625 56.0713 30.7402 56.3495 30.9454 56.5546C31.1505 56.7598 31.4287 56.875 31.7188 56.875H42.6562C42.9463 56.875 43.2245 56.7598 43.4296 56.5546C43.6348 56.3495 43.75 56.0713 43.75 55.7812C43.75 55.4912 43.6348 55.213 43.4296 55.0079C43.2245 54.8027 42.9463 54.6875 42.6562 54.6875Z" fill="#96CEBC"/>
<path d="M27.3438 54.6875H14.2188C13.9287 54.6875 13.6505 54.8027 13.4454 55.0079C13.2402 55.213 13.125 55.4912 13.125 55.7812C13.125 56.0713 13.2402 56.3495 13.4454 56.5546C13.6505 56.7598 13.9287 56.875 14.2188 56.875H27.3438C27.6338 56.875 27.912 56.7598 28.1171 56.5546C28.3223 56.3495 28.4375 56.0713 28.4375 55.7812C28.4375 55.4912 28.3223 55.213 28.1171 55.0079C27.912 54.8027 27.6338 54.6875 27.3438 54.6875Z" fill="#96CEBC"/>
<path d="M14.2188 50.3125H22.9688C23.2588 50.3125 23.537 50.1973 23.7421 49.9921C23.9473 49.787 24.0625 49.5088 24.0625 49.2188C24.0625 48.9287 23.9473 48.6505 23.7421 48.4454C23.537 48.2402 23.2588 48.125 22.9688 48.125H14.2188C13.9287 48.125 13.6505 48.2402 13.4454 48.4454C13.2402 48.6505 13.125 48.9287 13.125 49.2188C13.125 49.5088 13.2402 49.787 13.4454 49.9921C13.6505 50.1973 13.9287 50.3125 14.2188 50.3125Z" fill="#96CEBC"/>
<path d="M14.2188 17.5H27.3438C27.6338 17.5 27.912 17.3848 28.1171 17.1796C28.3223 16.9745 28.4375 16.6963 28.4375 16.4062C28.4375 16.1162 28.3223 15.838 28.1171 15.6329C27.912 15.4277 27.6338 15.3125 27.3438 15.3125H14.2188C13.9287 15.3125 13.6505 15.4277 13.4454 15.6329C13.2402 15.838 13.125 16.1162 13.125 16.4062C13.125 16.6963 13.2402 16.9745 13.4454 17.1796C13.6505 17.3848 13.9287 17.5 14.2188 17.5Z" fill="#96CEBC"/>
<path d="M42.6562 48.125H27.3438C27.0537 48.125 26.7755 48.2402 26.5704 48.4454C26.3652 48.6505 26.25 48.9287 26.25 49.2188C26.25 49.5088 26.3652 49.787 26.5704 49.9921C26.7755 50.1973 27.0537 50.3125 27.3438 50.3125H42.6562C42.9463 50.3125 43.2245 50.1973 43.4296 49.9921C43.6348 49.787 43.75 49.5088 43.75 49.2188C43.75 48.9287 43.6348 48.6505 43.4296 48.4454C43.2245 48.2402 42.9463 48.125 42.6562 48.125Z" fill="#96CEBC"/>
<path d="M53.5938 43.75C53.3037 43.75 53.0255 43.8652 52.8204 44.0704C52.6152 44.2755 52.5 44.5537 52.5 44.8438V57.9688C52.5 58.839 52.8457 59.6736 53.4611 60.2889C54.0764 60.9043 54.911 61.25 55.7812 61.25C56.6515 61.25 57.4861 60.9043 58.1014 60.2889C58.7168 59.6736 59.0625 58.839 59.0625 57.9688V16.4062C59.0625 16.2626 59.0342 16.1204 58.9793 15.9877C58.9243 15.855 58.8437 15.7344 58.7422 15.6328L45.6172 2.50783C45.5156 2.40627 45.395 2.32571 45.2623 2.27074C45.1296 2.21578 44.9874 2.18749 44.8438 2.1875H12.0312C10.5813 2.18913 9.19129 2.76582 8.16606 3.79106C7.14082 4.8163 6.56413 6.20635 6.5625 7.65625V62.3438C6.56413 63.7937 7.14082 65.1837 8.16606 66.2089C9.19129 67.2342 10.5813 67.8109 12.0312 67.8125H55.7812C57.8111 67.8102 59.7572 67.0028 61.1925 65.5675C62.6278 64.1322 63.4352 62.1861 63.4375 60.1562V44.8438C63.4375 44.5537 63.3223 44.2755 63.1171 44.0704C62.912 43.8652 62.6338 43.75 62.3438 43.75C62.0537 43.75 61.7755 43.8652 61.5704 44.0704C61.3652 44.2755 61.25 44.5537 61.25 44.8438V60.1562C61.25 61.6067 60.6738 62.9977 59.6482 64.0232C58.6227 65.0488 57.2317 65.625 55.7812 65.625C54.3308 65.625 52.9398 65.0488 51.9143 64.0232C50.8887 62.9977 50.3125 61.6067 50.3125 60.1562V40.4688C50.3125 39.5985 50.6582 38.7639 51.2736 38.1486C51.8889 37.5332 52.7235 37.1875 53.5938 37.1875C54.464 37.1875 55.2986 37.5332 55.9139 38.1486C56.5293 38.7639 56.875 39.5985 56.875 40.4688V57.9688C56.875 58.2588 56.7598 58.537 56.5546 58.7421C56.3495 58.9473 56.0713 59.0625 55.7812 59.0625C55.4912 59.0625 55.213 58.9473 55.0079 58.7421C54.8027 58.537 54.6875 58.2588 54.6875 57.9688V44.8438C54.6875 44.5537 54.5723 44.2755 54.3671 44.0704C54.162 43.8652 53.8838 43.75 53.5938 43.75ZM45.9375 5.9217L55.3283 15.3125H49.2188C48.3488 15.3115 47.5148 14.9655 46.8996 14.3504C46.2845 13.7352 45.9385 12.9012 45.9375 12.0312V5.9217ZM53.5938 35C52.1438 35.0016 50.7538 35.5783 49.7286 36.6036C48.7033 37.6288 48.1266 39.0188 48.125 40.4688V60.1562C48.1246 61.1756 48.3284 62.1846 48.7243 63.1239C49.1202 64.0632 49.7003 64.9136 50.4304 65.625H12.0312C11.1613 65.624 10.3273 65.278 9.71217 64.6628C9.09704 64.0477 8.75101 63.2137 8.75 62.3438V7.65625C8.75101 6.78632 9.09704 5.95231 9.71217 5.33717C10.3273 4.72204 11.1613 4.37601 12.0312 4.375H43.75V12.0312C43.7516 13.4812 44.3283 14.8712 45.3536 15.8964C46.3788 16.9217 47.7688 17.4984 49.2188 17.5H56.875V36.0968C55.9297 35.3838 54.7777 34.9988 53.5938 35Z" fill="#96CEBC"/>
</svg>
