<svg width="172" height="86" viewBox="0 0 172 86" fill="none" xmlns="http://www.w3.org/2000/svg">
<path fill-rule="evenodd" clip-rule="evenodd" d="M56.0433 29.5267C56.9033 29.67 56.9033 30.96 56.0433 31.1034L55.3267 31.2467L50.8833 32.1067V28.38L55.3267 29.24L56.0433 29.5267Z" fill="#758AFE"/>
<path fill-rule="evenodd" clip-rule="evenodd" d="M53.32 40.1334H35.5467V31.2467C35.5467 26.3734 39.56 22.36 44.4334 22.36C49.3067 22.36 53.32 26.3734 53.32 31.2467V40.1334Z" fill="#536DFE"/>
<path fill-rule="evenodd" clip-rule="evenodd" d="M35.5467 57.9067V40.1333H53.4634C53.32 49.88 45.2934 57.9067 35.5467 57.9067Z" fill="#758AFE"/>
<path fill-rule="evenodd" clip-rule="evenodd" d="M19.0634 45.8667H36.98V63.64C27.09 63.64 19.0634 55.7567 19.0634 45.8667Z" fill="#536DFE"/>
<path fill-rule="evenodd" clip-rule="evenodd" d="M35.8333 31.2467H30.8167V49.02H35.8333C40.7067 49.02 44.72 45.0067 44.72 40.1334C44.72 35.1167 40.7067 31.2467 35.8333 31.2467ZM22.9333 31.2467V48.59C24.2233 48.8767 25.5133 49.02 26.8033 49.02V31.2467H22.9333ZM8.88666 31.2467C8.88666 38.27 13.0433 44.4334 19.0633 47.3V31.2467H8.88666Z" fill="#BAC5FF"/>
<path fill-rule="evenodd" clip-rule="evenodd" d="M26.8034 31.2467H30.6734V49.02H26.8034V31.2467ZM19.0634 31.2467V47.3C20.21 47.8734 21.5 48.3034 22.9334 48.59V31.2467H19.0634Z" fill="#758AFE"/>
<path fill-rule="evenodd" clip-rule="evenodd" d="M49.7367 29.9567C50.0233 31.2467 49.1633 32.3934 47.8733 32.68C46.5833 32.9667 45.4367 32.1067 45.15 30.8167C44.8633 29.5267 45.7233 28.38 47.0133 28.0934C48.3033 27.8067 49.45 28.6667 49.7367 29.9567Z" fill="white"/>
<path fill-rule="evenodd" clip-rule="evenodd" d="M48.4466 30.1001C48.59 30.6734 48.16 31.1034 47.5866 31.2467C47.0133 31.3901 46.5833 30.9601 46.44 30.3867C46.44 29.8134 46.7266 29.3834 47.3 29.2401C47.73 29.3834 48.3033 29.6701 48.4466 30.1001Z" fill="#536DFE"/>
<path fill-rule="evenodd" clip-rule="evenodd" d="M48.4466 29.3834C48.4466 29.6701 48.3033 29.9568 48.0166 29.9568C47.7299 29.9568 47.4433 29.8134 47.4433 29.5268C47.4433 29.2401 47.5866 28.9534 47.8733 28.9534C48.1599 28.9534 48.4466 29.0968 48.4466 29.3834Z" fill="white"/>
<path fill-rule="evenodd" clip-rule="evenodd" d="M56.0433 29.5267C56.9033 29.67 56.9033 30.96 56.0433 31.1034L55.3267 31.2467L50.8833 32.1067V28.38L55.3267 29.24L56.0433 29.5267Z" fill="#8E9DF3"/>
<path fill-rule="evenodd" clip-rule="evenodd" d="M35.5467 40.1334V31.2467C35.5467 26.3734 39.56 22.36 44.4334 22.36C49.3067 22.36 53.32 26.3734 53.32 31.2467V40.1334H35.5467Z" fill="#7081E3"/>
<path fill-rule="evenodd" clip-rule="evenodd" d="M35.5467 57.9067V40.1333H53.4634C53.32 49.88 45.2934 57.9067 35.5467 57.9067Z" fill="#8E9DF3"/>
<path fill-rule="evenodd" clip-rule="evenodd" d="M19.0634 45.8667H36.98V63.64C27.09 63.64 19.0634 55.7567 19.0634 45.8667Z" fill="#7081E3"/>
<path fill-rule="evenodd" clip-rule="evenodd" d="M30.6733 31.2467V49.02H35.8333C40.7067 49.02 44.72 45.0067 44.72 40.1334C44.72 35.26 40.7067 31.2467 35.8333 31.2467H30.6733ZM22.9333 31.2467V48.59C24.2233 48.8767 25.5133 49.02 26.8033 49.02V31.2467H22.9333ZM8.88666 31.2467C8.88666 38.27 13.0433 44.4334 19.0633 47.3V31.2467H8.88666Z" fill="#B6C1FF"/>
<path fill-rule="evenodd" clip-rule="evenodd" d="M26.8034 31.2467H30.6734V49.02H26.8034V31.2467ZM19.0634 31.2467V47.3C20.21 47.8734 21.5 48.3034 22.9334 48.59V31.2467H19.0634Z" fill="#8E9DF3"/>
<path fill-rule="evenodd" clip-rule="evenodd" d="M49.7367 29.9567C50.0233 31.2467 49.1633 32.3934 47.8733 32.68C46.5833 32.9667 45.4367 32.1067 45.15 30.8167C44.8633 29.5267 45.7233 28.38 47.0133 28.0934C48.3033 27.8067 49.45 28.6667 49.7367 29.9567Z" fill="white"/>
<path fill-rule="evenodd" clip-rule="evenodd" d="M48.4466 30.1001C48.59 30.6734 48.16 31.1034 47.5866 31.2467C47.0133 31.3901 46.5833 30.9601 46.44 30.3867C46.44 29.8134 46.7266 29.3834 47.3 29.2401C47.73 29.3834 48.3033 29.6701 48.4466 30.1001Z" fill="#7081E3"/>
<path fill-rule="evenodd" clip-rule="evenodd" d="M48.4466 29.3834C48.4466 29.6701 48.3033 29.9568 48.0166 29.9568C47.7299 29.9568 47.4433 29.8134 47.4433 29.5268C47.4433 29.2401 47.5866 28.9534 47.8733 28.9534C48.1599 28.9534 48.4466 29.0968 48.4466 29.3834Z" fill="white"/>
<path d="M73.53 51.0267C72.3833 51.0267 71.2367 50.8834 70.2333 50.4534C69.23 50.0234 68.37 49.5934 67.51 48.7334C66.7933 48.0167 66.22 47.1567 65.79 46.01C65.36 44.8634 65.2167 43.7167 65.2167 42.2834C65.2167 40.85 65.5033 39.56 65.9333 38.5567C66.3633 37.41 66.9367 36.55 67.7967 35.69C68.5133 34.9734 69.3733 34.4 70.52 33.97C71.5233 33.54 72.67 33.3967 73.6733 33.3967C74.9633 33.3967 75.9667 33.6834 76.8267 34.1134C77.6867 34.5434 78.4033 35.1167 78.9767 35.69L76.97 38.1267C76.54 37.6967 76.11 37.41 75.5367 37.1234C75.1067 36.8367 74.39 36.6934 73.6733 36.6934C72.9567 36.6934 72.3833 36.8367 71.81 37.1234C71.2367 37.41 70.8067 37.6967 70.3767 38.27C69.9467 38.7 69.66 39.2734 69.3733 39.99C69.0867 40.7067 69.0867 41.4234 69.0867 42.2834C69.0867 44.0034 69.5167 45.4367 70.2333 46.44C71.0933 47.4434 72.24 47.8734 73.8167 47.8734C74.1033 47.8734 74.5333 47.8734 74.82 47.73C75.1067 47.5867 75.3933 47.4434 75.68 47.3V44.4334H72.8133V41.28H79.12V49.1634C78.5467 49.7367 77.6867 50.1667 76.8267 50.5967C75.8233 50.8834 74.82 51.0267 73.53 51.0267Z" fill="#7081E3"/>
<path d="M88.2933 51.0267C87.4333 51.0267 86.5733 50.8834 85.7133 50.5967C84.8533 50.3101 84.28 49.8801 83.5633 49.3067C82.99 48.7334 82.56 48.0167 82.13 47.1567C81.8433 46.2967 81.7 45.2934 81.7 44.2901C81.7 43.2867 81.8433 42.2834 82.2733 41.4234C82.56 40.5634 83.1333 39.8467 83.7067 39.2734C84.28 38.7001 84.9967 38.2701 85.7133 37.9834C86.43 37.6967 87.1467 37.5534 88.0067 37.5534C88.8667 37.5534 89.7267 37.6967 90.4433 37.9834C91.16 38.2701 91.7333 38.7001 92.1633 39.2734C92.5933 39.8467 93.0233 40.5634 93.1667 41.2801C93.4533 41.9967 93.4533 42.8567 93.4533 43.7167V44.7201C93.4533 45.0067 93.4533 45.2934 93.31 45.4367H85.57C85.7133 46.4401 86.1433 47.0134 86.7167 47.5867C87.29 48.0167 88.0067 48.3034 88.8667 48.3034C89.7267 48.3034 90.73 48.0167 91.7333 47.4434L93.0233 49.7367C92.3067 50.1667 91.59 50.5967 90.8733 50.7401C89.87 50.8834 89.01 51.0267 88.2933 51.0267ZM85.4267 42.8567H90.1567C90.1567 42.1401 90.0133 41.5667 89.7267 41.1367C89.44 40.7067 88.8667 40.4201 88.0067 40.4201C87.4333 40.4201 86.86 40.5634 86.43 40.9934C85.8567 41.4234 85.57 41.9967 85.4267 42.8567Z" fill="#7081E3"/>
<path d="M100.763 51.0267C99.9033 51.0267 99.33 50.8834 98.7567 50.5967C98.1833 50.3101 97.7533 50.0234 97.3233 49.5934C97.0367 49.1634 96.75 48.5901 96.6067 48.0167C96.4633 47.4434 96.32 46.7267 96.32 46.0101V40.7067H94.6V37.8401L96.6067 37.6967L97.0367 34.2567H100.19V37.6967H103.2V40.7067H100.047V45.8667C100.047 46.5834 100.19 47.1567 100.477 47.4434C100.763 47.7301 101.193 47.8734 101.623 47.8734C101.767 47.8734 102.053 47.8734 102.197 47.7301C102.483 47.7301 102.627 47.5867 102.77 47.5867L103.343 50.4534C103.057 50.5967 102.627 50.5967 102.053 50.7401C101.91 51.0267 101.337 51.0267 100.763 51.0267Z" fill="#7081E3"/>
<path d="M106.497 50.74V40.7067H104.777V37.84L106.497 37.6967V36.98C106.497 36.2633 106.64 35.69 106.783 34.9733C106.927 34.4 107.213 33.8267 107.643 33.3967C108.073 32.9667 108.503 32.5367 109.077 32.3934C109.65 32.1067 110.367 31.9633 111.37 31.9633C111.943 31.9633 112.373 31.9633 112.803 32.1067C113.233 32.25 113.663 32.25 113.95 32.3934L113.233 35.26C112.803 35.1167 112.23 34.9733 111.943 34.9733C111.513 34.9733 111.083 35.1167 110.797 35.4034C110.51 35.69 110.367 36.12 110.367 36.8367V37.5534H112.66V40.5633H110.367V50.5967H106.497V50.74Z" fill="#7081E3"/>
<path d="M119.97 51.0267C119.11 51.0267 118.393 50.8834 117.533 50.5967C116.817 50.3101 116.1 49.8801 115.527 49.3067C114.953 48.7334 114.523 48.0167 114.093 47.1567C113.807 46.2967 113.52 45.2934 113.52 44.2901C113.52 43.1434 113.663 42.2834 114.093 41.4234C114.38 40.5634 114.953 39.8467 115.527 39.2734C116.1 38.7001 116.817 38.2701 117.533 37.9834C118.25 37.6967 119.11 37.5534 119.97 37.5534C120.83 37.5534 121.547 37.6967 122.407 37.9834C123.123 38.2701 123.84 38.7001 124.413 39.2734C124.987 39.8467 125.417 40.5634 125.847 41.4234C126.133 42.2834 126.42 43.2867 126.42 44.2901C126.42 45.4367 126.277 46.2967 125.847 47.1567C125.56 48.0167 124.987 48.7334 124.413 49.3067C123.84 49.8801 123.123 50.3101 122.407 50.5967C121.69 50.8834 120.83 51.0267 119.97 51.0267ZM119.97 48.0167C120.687 48.0167 121.403 47.7301 121.69 47.0134C122.12 46.2967 122.263 45.4367 122.263 44.2901C122.263 43.1434 122.12 42.2834 121.69 41.5667C121.26 40.8501 120.687 40.5634 119.97 40.5634C119.11 40.5634 118.537 40.8501 118.107 41.5667C117.677 42.2834 117.533 43.1434 117.533 44.2901C117.533 45.4367 117.677 46.2967 118.107 47.0134C118.68 47.5867 119.253 48.0167 119.97 48.0167Z" fill="#7081E3"/>
<path d="M129 50.74V37.6967H132.153L132.44 39.99H132.583C133.013 39.13 133.587 38.4134 134.303 37.9834C135.02 37.5534 135.593 37.41 136.31 37.41H137.17C137.457 37.41 137.6 37.5534 137.743 37.5534L137.17 40.85C136.883 40.85 136.74 40.7067 136.453 40.7067C136.31 40.7067 136.023 40.7067 135.737 40.7067C135.307 40.7067 134.733 40.85 134.16 41.28C133.587 41.5667 133.157 42.2834 132.87 43.1434V50.74H129Z" fill="#7081E3"/>
<path d="M139.463 50.74V37.6967H142.617L142.903 39.4167H143.047C143.62 38.8434 144.193 38.4134 144.767 37.9834C145.34 37.5534 146.057 37.41 146.917 37.41C147.777 37.41 148.637 37.5534 149.21 37.9834C149.783 38.4134 150.213 38.8434 150.5 39.56C151.073 38.9867 151.647 38.4134 152.363 37.9834C153.08 37.5534 153.797 37.41 154.657 37.41C156.09 37.41 157.093 37.84 157.667 38.8434C158.383 39.8467 158.67 40.9934 158.67 42.7134V50.74H154.8V43.1434C154.8 42.14 154.657 41.5667 154.37 41.1367C154.083 40.85 153.653 40.5634 153.223 40.5634C152.507 40.5634 151.79 40.9934 150.93 41.8534V50.5967H147.06V43C147.06 41.9967 146.917 41.4234 146.63 40.9934C146.343 40.7067 145.913 40.42 145.34 40.42C144.623 40.42 143.907 40.85 143.19 41.71V50.4534H139.463V50.74Z" fill="#7081E3"/>
</svg>
