<svg width="58" height="70" viewBox="0 0 58 70" fill="none" xmlns="http://www.w3.org/2000/svg">
<path d="M29 13.5483C13.4363 13.5483 0.774231 26.2104 0.774231 41.7741C0.774231 57.3379 13.4363 69.9999 29 69.9999C44.5637 69.9999 57.2258 57.3379 57.2258 41.7741C57.2258 26.2104 44.5637 13.5483 29 13.5483ZM29 67.7419C14.6811 67.7419 3.0323 56.0931 3.0323 41.7741C3.0323 27.4552 14.6811 15.8064 29 15.8064C43.319 15.8064 54.9678 27.4552 54.9678 41.7741C54.9678 56.0931 43.319 67.7419 29 67.7419Z" fill="#96CEBC"/>
<path d="M46.9842 54.9035L44.7261 49.2583C44.5545 48.8297 44.1393 48.5486 43.6776 48.5484H42.5485V36.1291C42.542 30.5765 38.8565 25.7006 33.5163 24.1797V23.1452C33.5139 20.9638 31.7461 19.196 29.5647 19.1936H28.4356C26.2542 19.196 24.4864 20.9638 24.484 23.1452V24.1797C19.1438 25.7006 15.4582 30.5765 15.4518 36.1291V48.5484H14.3227C13.8609 48.5486 13.4457 48.8297 13.2741 49.2583L11.0161 54.9035C10.7853 55.4837 11.0686 56.1409 11.6488 56.3717C11.7811 56.4243 11.9223 56.4514 12.0647 56.4517H24.5249C24.808 58.3945 26.4724 59.8359 28.4356 59.8388H29.5647C31.5279 59.8359 33.1922 58.3945 33.4753 56.4517H45.9356C46.56 56.4507 47.0652 55.9437 47.0642 55.3194C47.0639 55.177 47.0368 55.0359 46.9842 54.9035ZM26.7421 23.1452C26.7429 22.2102 27.5006 21.4525 28.4356 21.4517H29.5647C30.4996 21.4525 31.2574 22.2102 31.2582 23.1452V23.7619C30.8856 23.7281 30.5102 23.7097 30.1292 23.7097H27.8711C27.4901 23.7097 27.1147 23.7281 26.7421 23.7619V23.1452ZM17.7098 36.1291C17.7162 31.3032 21.1105 27.145 25.8374 26.1724H25.8417C26.5095 26.0361 27.1895 25.9675 27.8711 25.9678H30.1292C30.8108 25.9675 31.4908 26.0361 32.1586 26.1724H32.1628C36.8898 27.145 40.2841 31.3032 40.2905 36.1291V48.5484H17.7098V36.1291ZM29.5647 57.5807H28.4356C27.7183 57.5799 27.0791 57.1278 26.8395 56.4517H31.1608C30.9212 57.1278 30.282 57.5799 29.5647 57.5807ZM13.7328 54.1936L15.0876 50.8065H42.9126L44.2675 54.1936H13.7328Z" fill="#96CEBC"/>
<path d="M25.6129 2.25806H29.6614L24.8145 7.10486C24.3736 7.54575 24.3736 8.26056 24.8145 8.70159C25.0262 8.91329 25.3134 9.03226 25.6129 9.03226H32.3871C33.0106 9.03226 33.5161 8.52673 33.5161 7.90323C33.5161 7.27972 33.0106 6.77419 32.3871 6.77419H28.3385L33.1854 1.9274C33.6263 1.48651 33.6263 0.771694 33.1854 0.330665C32.9737 0.118972 32.6865 0 32.3871 0H25.6129C24.9894 0 24.4838 0.505524 24.4838 1.12903C24.4838 1.75254 24.9894 2.25806 25.6129 2.25806Z" fill="#96CEBC"/>
<path d="M45.9356 10.1614H49.9841L45.1372 15.0082C44.6963 15.4491 44.6963 16.1639 45.1372 16.6049C45.3489 16.8166 45.6361 16.9356 45.9356 16.9356H52.7097C53.3333 16.9356 53.8388 16.4301 53.8388 15.8065C53.8388 15.183 53.3333 14.6775 52.7097 14.6775H48.6612L53.5081 9.83072C53.949 9.38983 53.949 8.67501 53.5081 8.23399C53.2964 8.02229 53.0092 7.90332 52.7097 7.90332H45.9356C45.312 7.90332 44.8065 8.40884 44.8065 9.03235C44.8065 9.65586 45.312 10.1614 45.9356 10.1614Z" fill="#96CEBC"/>
<path d="M7.54847 7.90321H11.597L6.7501 12.75C6.30921 13.1909 6.30921 13.9057 6.7501 14.3467C6.96179 14.5584 7.24899 14.6774 7.54847 14.6774H14.3227C14.9462 14.6774 15.4517 14.1719 15.4517 13.5484C15.4517 12.9249 14.9462 12.4193 14.3227 12.4193H10.2741L15.121 7.57254C15.5619 7.13165 15.5619 6.41683 15.121 5.97581C14.9093 5.76411 14.6221 5.64514 14.3227 5.64514H7.54847C6.92496 5.64514 6.41943 6.15067 6.41943 6.77417C6.41943 7.39768 6.92496 7.90321 7.54847 7.90321Z" fill="#96CEBC"/>
</svg>
