<svg width="240" height="48" viewBox="0 0 240 48" fill="none" xmlns="http://www.w3.org/2000/svg">
<g clip-path="url(#clip0_15_1040)">
<path d="M49.0333 0.375778C43.726 3.47558 28.8376 16.2036 27.0059 17.7535C25.2211 16.2036 10.2857 3.47558 4.97847 0.375778C3.05284 -0.751423 0 0.798479 0 3.14682V44.2897C0 47.4364 4.03914 48.1879 5.82388 47.2016C9.67515 44.9942 23.1076 33.1586 21.7456 31.3738C21.5577 31.092 21.3699 30.8572 21.0881 30.5754C19.5382 29.1194 7.37378 37.5734 7.37378 37.5734V10.8024C7.37378 10.8024 19.5382 22.5441 24.7984 24.5167C25.2211 24.6576 25.8787 24.7985 26.5832 24.7985H27.4286C28.1331 24.7515 28.7906 24.6576 29.2133 24.5167C34.5206 22.5441 46.6849 10.8024 46.6849 10.8024V37.5734C46.6849 37.5734 34.5206 29.1664 33.0176 30.6224C32.7358 30.9042 32.501 31.139 32.3601 31.4208C30.998 33.1586 44.4305 45.0411 48.2818 47.2486C50.0196 48.2349 54.1057 47.4834 54.1057 44.3366V3.19378C54.0587 0.798479 51.0059 -0.751423 49.0333 0.375778Z" fill="#95CEBC"/>
<path d="M92.0078 10.5675C92.3836 10.9433 92.5714 11.4129 92.5714 11.9296V36.8689C92.5714 37.4325 92.3836 37.9022 92.0078 38.2779C91.6321 38.6537 91.1624 38.8415 90.5519 38.8415C89.9413 38.8415 89.4716 38.6537 89.0489 38.2779C88.6732 37.9022 88.4853 37.4325 88.4853 36.8689V17.8004L80.501 29.9178C80.3131 30.1527 80.0783 30.3875 79.7965 30.5284C79.5147 30.7163 79.2329 30.7632 78.9041 30.7163C78.6223 30.7632 78.3405 30.6693 78.0587 30.5284C77.7769 30.3405 77.5421 30.1527 77.3542 29.9178L69.3229 17.4247V36.8689C69.3229 37.4325 69.135 37.9022 68.8063 38.2779C68.4775 38.6537 68.0078 38.8415 67.4442 38.8415C66.8806 38.8415 66.4579 38.6537 66.0822 38.2779C65.7534 37.9022 65.5656 37.4325 65.5656 36.8689V11.9296C65.5656 11.4129 65.7534 10.9433 66.1292 10.5675C66.5049 10.1918 66.9745 9.95698 67.5851 9.95698C67.9139 9.95698 68.2427 10.0509 68.5714 10.1918C68.9002 10.3797 69.135 10.5675 69.3229 10.8493L79.092 25.6439L89.002 10.8493C89.4247 10.2388 89.9883 9.95698 90.6458 9.95698C91.1624 10.0039 91.6321 10.1918 92.0078 10.5675ZM116.008 17.5186C116.384 17.8944 116.571 18.364 116.571 18.9746V36.8689C116.571 37.4325 116.384 37.9022 116.008 38.2779C115.632 38.6537 115.162 38.8415 114.599 38.8415C114.035 38.8415 113.566 38.6537 113.19 38.2779C112.814 37.9022 112.673 37.4325 112.673 36.8689V35.7887C111.969 36.728 110.982 37.5734 109.761 38.231C108.54 38.8885 107.178 39.2642 105.769 39.2642C103.89 39.2642 102.2 38.7946 100.697 37.8083C99.1937 36.8689 97.9726 35.5069 97.1272 33.7691C96.2818 32.0313 95.8121 30.1057 95.8121 27.9922C95.8121 25.8317 96.2348 23.9061 97.1272 22.2153C97.9726 20.4775 99.1937 19.1625 100.697 18.1762C102.2 17.2368 103.89 16.7202 105.675 16.7202C107.131 16.7202 108.493 17.002 109.714 17.6126C110.982 18.2231 111.969 18.9746 112.72 19.9139V18.9276C112.72 18.364 112.908 17.8474 113.237 17.4717C113.613 17.0959 114.082 16.9081 114.646 16.9081C115.162 16.955 115.632 17.1429 116.008 17.5186ZM109.62 34.6615C110.607 34.0039 111.405 33.1116 111.969 31.9374C112.532 30.7632 112.814 29.4951 112.814 28.0392C112.814 26.6302 112.532 25.3151 111.969 24.1409C111.405 22.9668 110.607 22.0744 109.62 21.4169C108.634 20.7593 107.46 20.3836 106.192 20.3836C104.877 20.3836 103.75 20.7124 102.763 21.3699C101.777 22.0274 100.978 22.9198 100.415 24.094C99.8513 25.2681 99.5695 26.5362 99.5695 27.9922C99.5695 29.4482 99.8513 30.7632 100.415 31.8904C100.978 33.0646 101.777 33.957 102.763 34.6145C103.75 35.272 104.924 35.6008 106.192 35.6008C107.46 35.6478 108.634 35.319 109.62 34.6615ZM120.986 13.9022C120.658 13.6204 120.47 13.1507 120.47 12.5401V11.8826C120.47 11.2251 120.658 10.7554 121.033 10.4736C121.409 10.1918 121.973 10.0509 122.724 10.0509C123.476 10.0509 124.039 10.1918 124.415 10.4736C124.744 10.7554 124.932 11.2251 124.932 11.8356V12.4932C124.932 13.1507 124.744 13.6204 124.415 13.9022C124.039 14.184 123.476 14.3249 122.724 14.3249C121.879 14.3249 121.315 14.184 120.986 13.9022ZM124.086 38.2779C123.71 38.6537 123.241 38.8415 122.677 38.8415C122.114 38.8415 121.644 38.6537 121.315 38.2779C120.939 37.9022 120.751 37.4325 120.751 36.8689V19.0216C120.751 18.458 120.939 17.9883 121.315 17.6126C121.691 17.2368 122.16 17.049 122.677 17.049C123.241 17.049 123.71 17.2368 124.086 17.6126C124.462 17.9883 124.65 18.458 124.65 19.0216V36.8689C124.65 37.4325 124.462 37.9022 124.086 38.2779ZM132.54 38.2779C132.164 38.6537 131.695 38.8415 131.131 38.8415C130.568 38.8415 130.098 38.6537 129.769 38.2779C129.393 37.9022 129.205 37.4325 129.205 36.8689V10.3327C129.205 9.76911 129.393 9.29944 129.769 8.92371C130.145 8.54797 130.614 8.36011 131.178 8.36011C131.742 8.36011 132.211 8.54797 132.54 8.92371C132.916 9.29944 133.104 9.76911 133.104 10.3327V36.8689C133.104 37.4325 132.916 37.9022 132.54 38.2779ZM153.346 18.2231C154.849 19.1625 156.07 20.5245 156.916 22.2153C157.761 23.9061 158.231 25.8317 158.231 27.9922C158.231 30.1527 157.808 32.0783 156.916 33.8161C156.07 35.5538 154.849 36.9159 153.346 37.8552C151.843 38.7946 150.153 39.3112 148.368 39.3112C146.959 39.3112 145.597 38.9824 144.376 38.3719C143.155 37.7613 142.121 36.9628 141.37 36.0235V37.1977C141.37 37.7613 141.182 38.2309 140.806 38.6067C140.431 38.9824 139.961 39.1703 139.397 39.1703C138.834 39.1703 138.364 38.9824 138.035 38.6067C137.66 38.2309 137.472 37.7613 137.472 37.1977V10.3327C137.472 9.76911 137.66 9.29944 137.988 8.92371C138.364 8.54797 138.834 8.36011 139.397 8.36011C139.961 8.36011 140.431 8.54797 140.806 8.92371C141.182 9.29944 141.37 9.76911 141.37 10.3327V20.3836C142.027 19.3973 143.014 18.5519 144.235 17.8474C145.503 17.1429 146.865 16.7672 148.274 16.7672C150.153 16.7672 151.843 17.2368 153.346 18.2231ZM151.28 34.6615C152.313 34.0039 153.065 33.0646 153.628 31.8904C154.192 30.7163 154.474 29.4012 154.474 27.9922C154.474 26.5832 154.192 25.2681 153.628 24.094C153.065 22.9198 152.266 22.0274 151.28 21.3699C150.247 20.7124 149.119 20.3836 147.851 20.3836C146.536 20.3836 145.409 20.7124 144.376 21.3699C143.342 22.0274 142.591 22.9198 142.027 24.094C141.464 25.2212 141.182 26.5362 141.182 27.9922C141.182 29.4482 141.464 30.7632 142.027 31.8904C142.591 33.0646 143.389 33.957 144.376 34.6145C145.409 35.272 146.536 35.6478 147.851 35.6478C149.119 35.6478 150.247 35.319 151.28 34.6615ZM178.427 17.8474C178.802 18.2231 178.99 18.6928 178.99 19.2564V30.2466C178.99 33.1116 178.192 35.319 176.642 36.9159C175.045 38.5128 172.838 39.2642 169.926 39.2642C167.061 39.2642 164.853 38.4658 163.303 36.9159C161.753 35.319 160.955 33.1116 160.955 30.2466V19.2564C160.955 18.6928 161.143 18.2231 161.519 17.8474C161.894 17.4717 162.364 17.2838 162.881 17.2838C163.444 17.2838 163.914 17.4717 164.29 17.8474C164.665 18.2231 164.853 18.6928 164.853 19.2564V30.2466C164.853 33.863 166.544 35.6478 169.926 35.6478C171.616 35.6478 172.885 35.1781 173.777 34.2857C174.669 33.3934 175.092 32.0313 175.092 30.2466V19.2564C175.092 18.6928 175.28 18.2231 175.656 17.8474C176.031 17.4717 176.501 17.2838 177.018 17.2838C177.581 17.2838 178.051 17.4717 178.427 17.8474ZM188.806 21.0881V33.3934C188.806 34.7554 189.417 35.4599 190.685 35.4599C190.873 35.4599 191.155 35.4129 191.483 35.319C191.812 35.2251 192.094 35.1781 192.282 35.1781C192.658 35.1781 192.939 35.319 193.174 35.6478C193.409 35.9296 193.55 36.3523 193.55 36.822C193.55 37.3856 193.221 37.9022 192.564 38.3249C191.906 38.7476 191.155 38.9355 190.356 38.9355C189.464 38.9355 188.618 38.8415 187.867 38.6537C187.115 38.4658 186.458 37.9961 185.847 37.1977C185.237 36.3992 184.955 35.2251 184.955 33.6282V21.0881H182.56C182.043 21.0881 181.62 20.9002 181.245 20.5715C180.916 20.2427 180.728 19.773 180.728 19.2564C180.728 18.7398 180.916 18.3171 181.245 17.9883C181.573 17.6595 182.043 17.4717 182.56 17.4717H184.955V13.9961C184.955 13.4325 185.143 12.9628 185.519 12.5871C185.894 12.2114 186.364 12.0235 186.928 12.0235C187.491 12.0235 187.961 12.2114 188.29 12.5871C188.665 12.9628 188.853 13.4325 188.853 13.9961V17.4717H192.282C192.798 17.4717 193.221 17.6595 193.597 17.9883C193.926 18.3171 194.114 18.7867 194.114 19.3034C194.114 19.82 193.926 20.2427 193.597 20.5715C193.268 20.9002 192.798 21.0881 192.282 21.0881H188.806ZM200.454 38.2779C200.078 38.6537 199.609 38.8415 199.045 38.8415C198.481 38.8415 198.012 38.6537 197.683 38.2779C197.307 37.9022 197.119 37.4325 197.119 36.8689V10.3327C197.119 9.76911 197.307 9.29944 197.683 8.92371C198.059 8.54797 198.528 8.36011 199.092 8.36011C199.656 8.36011 200.125 8.54797 200.454 8.92371C200.83 9.29944 201.018 9.76911 201.018 10.3327V36.8689C201.018 37.4325 200.83 37.9022 200.454 38.2779ZM223.28 28.5088C222.904 28.8376 222.434 29.0255 221.918 29.0255H207.405C207.593 31.045 208.344 32.6419 209.706 33.863C211.022 35.0842 212.665 35.6947 214.591 35.6947C215.906 35.6947 216.986 35.5069 217.785 35.1311C218.63 34.7554 219.335 34.2388 219.992 33.6282C220.415 33.3934 220.791 33.2525 221.166 33.2525C221.636 33.2525 222.012 33.4403 222.341 33.7691C222.669 34.0979 222.81 34.4736 222.81 34.9433C222.81 35.5069 222.528 36.0235 221.965 36.4932C221.166 37.2916 220.086 37.9492 218.771 38.5128C217.456 39.0764 216.094 39.3582 214.732 39.3582C212.525 39.3582 210.552 38.8885 208.861 37.9492C207.17 37.0098 205.855 35.6947 204.963 34.0509C204.024 32.3601 203.601 30.4814 203.601 28.3679C203.601 26.0666 204.07 24.047 205.01 22.2623C205.949 20.5245 207.217 19.1625 208.767 18.2231C210.317 17.2838 212.008 16.8141 213.793 16.8141C215.53 16.8141 217.221 17.2838 218.724 18.1762C220.274 19.0685 221.495 20.3366 222.434 21.9335C223.374 23.5304 223.843 25.3151 223.89 27.2877C223.89 27.7574 223.703 28.1801 223.28 28.5088ZM209.8 21.6987C208.673 22.5441 207.922 23.9061 207.593 25.7378H219.757V25.409C219.616 23.9531 218.959 22.7789 217.785 21.8396C216.611 20.9002 215.296 20.4306 213.793 20.4306C212.29 20.3836 210.928 20.8533 209.8 21.6987ZM239.202 17.3308C239.718 17.7065 240 18.1762 240 18.6928C240 19.3503 239.812 19.867 239.483 20.1957C239.155 20.5245 238.732 20.7124 238.215 20.7124C237.98 20.7124 237.605 20.6184 237.088 20.4775C236.525 20.2897 236.055 20.1957 235.726 20.1957C234.881 20.1957 234.035 20.4775 233.237 21.0881C232.438 21.6987 231.781 22.4971 231.264 23.5304C230.748 24.5636 230.513 25.6908 230.513 26.9589V36.9159C230.513 37.4795 230.325 37.9492 229.949 38.3249C229.573 38.7006 229.104 38.8885 228.54 38.8885C227.977 38.8885 227.507 38.7006 227.131 38.3249C226.755 37.9492 226.615 37.4795 226.615 36.9159V19.2564C226.615 18.6928 226.802 18.2231 227.178 17.8474C227.554 17.4717 228.024 17.2838 228.54 17.2838C229.104 17.2838 229.573 17.4717 229.949 17.8474C230.325 18.2231 230.513 18.6928 230.513 19.2564V21.3699C231.123 20.0079 232.016 18.9276 233.237 18.0822C234.458 17.2368 235.82 16.8141 237.37 16.7672C238.074 16.7672 238.685 16.955 239.202 17.3308Z" fill="black"/>
</g>
<defs>
<clipPath id="clip0_15_1040">
<rect width="240" height="47.6243" fill="white"/>
</clipPath>
</defs>
</svg>
