<svg width="70" height="70" viewBox="0 0 70 70" fill="none" xmlns="http://www.w3.org/2000/svg">
<g clip-path="url(#clip0_15_1289)">
<path d="M66.9211 0H3.07885C1.38124 0 0 1.38124 0 3.07885V12.9255V66.9211C0 68.6188 1.38124 70 3.07885 70H66.9211C68.6188 70 70 68.6188 70 66.9211V12.9255V3.07885C70 1.38124 68.6188 0 66.9211 0ZM67.9474 66.9211C67.9474 67.4871 67.4871 67.9474 66.9211 67.9474H3.07885C2.51289 67.9474 2.05256 67.4871 2.05256 66.9211V13.9518H67.9474V66.9211ZM67.9474 11.8993H2.05256V3.07885C2.05256 2.51289 2.51289 2.05256 3.07885 2.05256H66.9211C67.4871 2.05256 67.9474 2.51289 67.9474 3.07885V11.8993Z" fill="#96CEBC"/>
<path d="M9.12411 3.8739C7.31703 3.8739 5.84698 5.34395 5.84698 7.15103C5.84698 8.95811 7.31703 10.4282 9.12411 10.4282C10.9312 10.4282 12.4014 8.95811 12.4014 7.15103C12.4014 5.34395 10.9312 3.8739 9.12411 3.8739ZM9.12411 8.37559C8.44882 8.37559 7.89955 7.82618 7.89955 7.15103C7.89955 6.47587 8.44895 5.92647 9.12411 5.92647C9.79954 5.92647 10.3488 6.47587 10.3488 7.15103C10.3488 7.82618 9.79941 8.37559 9.12411 8.37559Z" fill="#96CEBC"/>
<path d="M17.8172 3.8739C16.0101 3.8739 14.5399 5.34395 14.5399 7.15103C14.5399 8.95811 16.0101 10.4282 17.8172 10.4282C19.6243 10.4282 21.0943 8.95811 21.0943 7.15103C21.0943 5.34395 19.6243 3.8739 17.8172 3.8739ZM17.8172 8.37559C17.1417 8.37559 16.5925 7.82618 16.5925 7.15103C16.5925 6.47587 17.1419 5.92647 17.8172 5.92647C18.4925 5.92647 19.0417 6.47587 19.0417 7.15103C19.0417 7.82618 18.4925 8.37559 17.8172 8.37559Z" fill="#96CEBC"/>
<path d="M26.5102 3.8739C24.7031 3.8739 23.2331 5.34395 23.2331 7.15103C23.2331 8.95811 24.7031 10.4282 26.5102 10.4282C28.3173 10.4282 29.7874 8.95811 29.7874 7.15103C29.7874 5.34395 28.3173 3.8739 26.5102 3.8739ZM26.5102 8.37559C25.8349 8.37559 25.2857 7.82618 25.2857 7.15103C25.2857 6.47587 25.8351 5.92647 26.5102 5.92647C27.1854 5.92647 27.7348 6.47587 27.7348 7.15103C27.7348 7.82618 27.1855 8.37559 26.5102 8.37559Z" fill="#96CEBC"/>
<path d="M8.98061 25.9657H61.0193C62.0398 25.9657 62.87 25.1355 62.87 24.115V19.1792C62.87 18.1587 62.0398 17.3285 61.0193 17.3285H8.98061C7.96008 17.3285 7.12988 18.1587 7.12988 19.1792V24.115C7.12975 25.1355 7.96008 25.9657 8.98061 25.9657ZM9.18231 19.3809H60.8175V23.9131H9.18231V19.3809Z" fill="#96CEBC"/>
<path d="M8.98061 36.9273H61.0193C62.0398 36.9273 62.87 36.0971 62.87 35.0765V30.1408C62.87 29.1203 62.0398 28.2899 61.0193 28.2899H21.9319C21.365 28.2899 20.9056 28.7493 20.9056 29.3162C20.9056 29.8831 21.365 30.3425 21.9319 30.3425H60.8175V34.8748H9.18231V30.3424H17.211C17.7779 30.3424 18.2373 29.883 18.2373 29.3161C18.2373 28.7492 17.7779 28.2898 17.211 28.2898H8.98061C7.96008 28.2898 7.12988 29.1201 7.12988 30.1407V35.0764C7.12975 36.0971 7.96008 36.9273 8.98061 36.9273Z" fill="#96CEBC"/>
<path d="M8.98061 55.5268H61.0193C62.0398 55.5268 62.87 54.6966 62.87 53.676V47.6805C62.87 47.1136 62.4107 46.6542 61.8437 46.6542C61.2768 46.6542 60.8175 47.1136 60.8175 47.6805V53.4743H9.18231V41.3043H60.8175V42.9823C60.8175 43.5492 61.2768 44.0086 61.8437 44.0086C62.4107 44.0086 62.87 43.5492 62.87 42.9823V41.1027C62.87 40.0822 62.0398 39.2518 61.0193 39.2518H8.98061C7.96008 39.2518 7.12988 40.0822 7.12988 41.1027V53.6762C7.12975 54.6966 7.96008 55.5268 8.98061 55.5268Z" fill="#96CEBC"/>
<path d="M61.0193 57.851H49.4125C48.392 57.851 47.5618 58.6811 47.5618 59.7017V63.1074C47.5618 64.128 48.392 64.9582 49.4125 64.9582H61.0193C62.0399 64.9582 62.8701 64.128 62.8701 63.1074V59.7017C62.8701 58.6811 62.0399 57.851 61.0193 57.851ZM60.8175 62.9056H49.6142V59.9035H60.8175V62.9056Z" fill="#96CEBC"/>
<path d="M12.6106 45.7635H15.9922C16.5591 45.7635 17.0184 45.3041 17.0184 44.7372C17.0184 44.1703 16.5591 43.7109 15.9922 43.7109H12.6106C12.0437 43.7109 11.5844 44.1703 11.5844 44.7372C11.5844 45.3041 12.0439 45.7635 12.6106 45.7635Z" fill="#96CEBC"/>
<path d="M41.4362 44.7372C41.4362 44.1703 40.9768 43.7109 40.4099 43.7109H19.7789C19.212 43.7109 18.7526 44.1703 18.7526 44.7372C18.7526 45.3041 19.212 45.7635 19.7789 45.7635H40.4099C40.9767 45.7635 41.4362 45.304 41.4362 44.7372Z" fill="#96CEBC"/>
<path d="M29.7312 47.2032C29.1643 47.2032 28.705 47.6626 28.705 48.2295C28.705 48.7964 29.1643 49.2558 29.7312 49.2558H37.2761C37.843 49.2558 38.3023 48.7964 38.3023 48.2295C38.3023 47.6626 37.843 47.2032 37.2761 47.2032H29.7312Z" fill="#96CEBC"/>
<path d="M23.4336 47.2032C22.8667 47.2032 22.4073 47.6626 22.4073 48.2295C22.4073 48.7964 22.8667 49.2558 23.4336 49.2558H25.7856C26.3525 49.2558 26.8119 48.7964 26.8119 48.2295C26.8119 47.6626 26.3525 47.2032 25.7856 47.2032H23.4336Z" fill="#96CEBC"/>
<path d="M12.6106 49.2558H19.6483C20.2152 49.2558 20.6746 48.7964 20.6746 48.2295C20.6746 47.6626 20.2152 47.2032 19.6483 47.2032H12.6106C12.0437 47.2032 11.5844 47.6626 11.5844 48.2295C11.5844 48.7964 12.0439 49.2558 12.6106 49.2558Z" fill="#96CEBC"/>
</g>
<defs>
<clipPath id="clip0_15_1289">
<rect width="70" height="70" fill="white"/>
</clipPath>
</defs>
</svg>
