<svg width="89" height="90" viewBox="0 0 89 90" fill="none" xmlns="http://www.w3.org/2000/svg">
<path d="M78.9741 5.60986H31.4945C29.3673 5.60986 27.617 7.38735 27.617 9.5475V14.0232L54.378 22.4374L82.8517 14.0232V9.5475C82.8517 7.38735 81.1013 5.60986 78.9741 5.60986Z" fill="#0364B8"/>
<path d="M87.4092 48.8141C87.8137 47.5229 88.1367 46.2068 88.3757 44.8736C88.3762 44.2066 88.025 43.5885 87.4562 43.2552L87.4204 43.2356L87.4092 43.2303L57.4773 25.9149C57.3483 25.83 57.2145 25.7521 57.0771 25.6819C55.9181 25.0985 54.5547 25.0985 53.3957 25.6819C53.2583 25.7521 53.1245 25.8296 52.9951 25.9149L23.0636 43.2303L23.0524 43.2356L23.0162 43.2552C22.4478 43.5885 22.0966 44.2066 22.097 44.8736C22.3361 46.2068 22.6591 47.5229 23.0636 48.8141L54.8013 72.3861L87.4092 48.8141Z" fill="#0A2767"/>
<path d="M66.2816 14.0232H46.9495L41.3678 22.4374L46.9495 30.8507L66.2816 47.6779H82.8519V30.8507L66.2816 14.0232Z" fill="#28A8EA"/>
<path fill-rule="evenodd" clip-rule="evenodd" d="M27.6176 14.0229H46.9498V30.8501H27.6176V14.0229Z" fill="#0078D4"/>
<path fill-rule="evenodd" clip-rule="evenodd" d="M66.2816 14.0229H82.8519V30.8501H66.2816V14.0229Z" fill="#50D9FF"/>
<path d="M66.282 47.678L46.9498 30.8508H27.6176V47.678L46.9498 64.5055L76.8648 69.4638L66.282 47.678Z" fill="#0364B8"/>
<path fill-rule="evenodd" clip-rule="evenodd" d="M46.9499 30.8508H66.282V47.678H46.9499V30.8508Z" fill="#0078D4"/>
<path fill-rule="evenodd" clip-rule="evenodd" d="M27.6176 47.6775H46.9498V64.5046H27.6176V47.6775Z" fill="#064A8C"/>
<path fill-rule="evenodd" clip-rule="evenodd" d="M66.2816 47.6775H82.8519V64.5046H66.2816V47.6775Z" fill="#0078D4"/>
<path d="M55.7628 70.7252L23.1907 46.6062L24.555 44.169C24.555 44.169 54.2298 61.3327 54.6826 61.5909C55.0578 61.7439 55.4796 61.7317 55.8456 61.5571C56.2678 61.316 86.0366 44.085 86.0366 44.085L87.4065 46.5221L55.7628 70.7252Z" fill="#0A2767" fill-opacity="0.498039"/>
<path d="M87.4558 46.491L87.42 46.5135L87.4116 46.5192L57.4801 63.8346C56.2725 64.6253 54.7427 64.722 53.4479 64.0896L63.8733 78.2834L86.6688 83.3233V83.3348C87.7434 82.5454 88.3814 81.277 88.381 79.9299V44.873C88.3814 45.5397 88.0299 46.1581 87.4614 46.491H87.4558Z" fill="#1490DF"/>
<path d="M88.3751 79.9298V77.8602L60.8045 61.9077L57.4766 63.8317C56.2694 64.6223 54.7395 64.7194 53.4448 64.0866L63.8701 78.2808L86.6657 83.3203V83.3318C87.7403 82.542 88.3779 81.274 88.3779 79.9269L88.3751 79.9298Z" fill="black" fill-opacity="0.047059"/>
<path d="M88.2373 81.0036L58.0153 63.52L57.4766 63.8313C56.2694 64.6219 54.7395 64.719 53.4448 64.0863L63.8701 78.2804L86.6657 83.32V83.3314C87.439 82.7619 87.9954 81.9382 88.2397 81.0007L88.2373 81.0036Z" fill="black" fill-opacity="0.098039"/>
<path d="M23.0598 46.5277V46.4996H23.0325L22.9494 46.4437C22.4134 46.1088 22.088 45.5119 22.0933 44.873V79.9356C22.0933 82.2402 23.9609 84.1368 26.2307 84.1368H84.2329C84.5776 84.1331 84.9211 84.0862 85.2545 83.9964C85.4276 83.9658 85.5952 83.9091 85.7518 83.8284C85.8105 83.8222 85.8667 83.8031 85.9174 83.7721C86.1431 83.6782 86.3569 83.5558 86.5525 83.4073L86.663 83.3233L23.0598 46.5277Z" fill="#28A8EA"/>
<path d="M49.7107 69.1799V23.3733C49.7047 21.3245 48.0468 19.6409 46.0293 19.6348H27.7026V40.5452L23.0598 43.232L23.0489 43.2377L23.0132 43.2573C22.4443 43.591 22.0932 44.2091 22.0932 44.8753V72.9295V72.9181H46.0293C48.0468 72.9124 49.7047 71.2283 49.7107 69.1799Z" fill="black" fill-opacity="0.098039"/>
<path d="M46.9492 71.9841V26.1775C46.9432 24.1291 45.2848 22.4455 43.2677 22.439H27.7026V40.5451L23.0598 43.2319L23.0489 43.2376L23.0132 43.2572C22.4443 43.5909 22.0932 44.209 22.0932 44.8752V75.7341V75.7227H43.2677C45.2848 75.7166 46.9432 74.0329 46.9492 71.9841ZM46.9492 66.3751V26.1775C46.9432 24.1291 45.2848 22.4455 43.2677 22.439H27.7026V40.5451L23.0598 43.2319L23.0489 43.2376L23.0132 43.2572C22.4443 43.5909 22.0932 44.209 22.0932 44.8752V70.1247V70.1136H43.2677C45.2848 70.1075 46.9432 68.4239 46.9492 66.3751ZM44.1873 66.3751V26.1775C44.1813 24.1291 42.5233 22.4455 40.5062 22.439H27.7026V40.5451L23.0598 43.2319L23.0489 43.2376L23.0132 43.2572C22.4443 43.5909 22.0932 44.209 22.0932 44.8752V70.1247V70.1136H40.5062C42.5233 70.1075 44.1813 68.4239 44.1873 66.3751Z" fill="black" fill-opacity="0.2"/>
<path d="M3.68157 22.437H40.5036C42.5231 22.437 44.1851 24.1243 44.1851 26.1752V63.5684C44.1851 65.6192 42.5231 67.3069 40.5036 67.3069H3.68157C1.66206 67.3069 9.15527e-05 65.6192 9.15527e-05 63.5684V26.1752C9.15527e-05 24.1243 1.66206 22.437 3.68157 22.437Z" fill="#0078D4"/>
<path d="M10.6798 37.7725C11.658 35.6556 13.2376 33.8838 15.2145 32.6852C17.4052 31.4115 19.8996 30.7772 22.4228 30.851C24.7597 30.7988 27.0665 31.4005 29.0896 32.5897C30.9934 33.741 32.5268 35.4299 33.5026 37.4502C34.5656 39.676 35.0959 42.1254 35.0493 44.5989C35.1011 47.1841 34.5552 49.7461 33.456 52.0788C32.4585 54.1704 30.8789 55.9202 28.9128 57.1102C26.811 58.3369 24.4182 58.955 21.9946 58.8967C19.6071 58.9542 17.2493 58.3459 15.1788 57.1379C13.2601 55.9846 11.7082 54.2941 10.7103 52.2693C9.6405 50.0753 9.10419 47.6525 9.14717 45.2047C9.09977 42.6415 9.62484 40.1007 10.6826 37.7725H10.6798ZM15.5126 49.7143C16.0345 51.0528 16.9195 52.2143 18.0648 53.0628C19.2303 53.8918 20.6275 54.3193 22.0496 54.283C23.565 54.3438 25.059 53.9028 26.3056 53.0265C27.4369 52.178 28.2986 51.0104 28.7831 49.6694C29.3278 48.1746 29.5962 46.5905 29.5757 44.997C29.5926 43.3897 29.3403 41.7905 28.8301 40.2688C28.3801 38.8988 27.5493 37.6896 26.4382 36.7885C25.2245 35.8681 23.7345 35.4006 22.2212 35.4646C20.7681 35.4263 19.3395 35.8563 18.142 36.693C16.9753 37.5444 16.0706 38.7157 15.5347 40.0697C14.3496 43.1698 14.3428 46.6097 15.5154 49.7143H15.5126Z" fill="white"/>
</svg>
