<svg width="70" height="70" viewBox="0 0 70 70" fill="none" xmlns="http://www.w3.org/2000/svg">
<g clip-path="url(#clip0_15_1251)">
<path d="M69.3102 0.179568C68.8838 -0.0637916 68.3594 -0.05969 67.9369 0.190232L42.8826 15.0056C42.2327 15.3899 42.0173 16.2283 42.4017 16.8783C42.7858 17.5281 43.6242 17.7434 44.2743 17.3592L62.2504 6.72949L28.7671 41.4715L12.1137 36.3765L33.8472 23.525C34.4971 23.1405 34.7125 22.3022 34.3281 21.6522C33.944 21.0024 33.1055 20.7868 32.4555 21.1712L8.05407 35.6004C7.58786 35.8761 7.32823 36.401 7.39236 36.939C7.45648 37.477 7.83204 37.9262 8.34993 38.0847L28.2383 44.1692L37.0125 60.1398C37.0216 60.1563 37.0311 60.1702 37.0408 60.1827C37.1872 60.4269 37.4066 60.6263 37.6804 60.7415C37.8517 60.8135 38.0317 60.8487 38.2106 60.8487C38.561 60.8487 38.9059 60.7138 39.1664 60.4591L49.2554 50.599L68.2328 56.4049C68.364 56.4449 68.4987 56.4648 68.6327 56.4648C68.922 56.4648 69.2077 56.3729 69.4459 56.1967C69.7944 55.9388 70 55.531 70 55.0976V1.36711C70 0.87615 69.7367 0.42279 69.3102 0.179568ZM37.087 45.0118C36.9287 45.2406 36.8438 45.5121 36.8438 45.7903V54.1535L30.8523 43.2482L57.365 15.739L37.087 45.0118ZM39.5781 56.2336V47.6385L46.276 49.6876L39.5781 56.2336ZM67.2656 53.2495L40.4005 45.0306L67.2656 6.24851V53.2495Z" fill="white"/>
<path d="M22.4797 47.5203C21.9457 46.9864 21.0802 46.9864 20.5461 47.5203L7.78311 60.2833C7.24923 60.8171 7.24923 61.6829 7.78311 62.2169C8.05026 62.4838 8.40012 62.6172 8.74999 62.6172C9.09985 62.6172 9.44971 62.4838 9.71672 62.2167L22.4797 49.4538C23.0136 48.92 23.0136 48.0543 22.4797 47.5203Z" fill="white"/>
<path d="M5.47846 64.5214C4.94444 63.9878 4.07901 63.9878 3.54498 64.5215L0.400453 67.6661C-0.133434 68.2 -0.133434 69.0657 0.400453 69.5997C0.667465 69.8666 1.01733 70 1.36719 70C1.71705 70 2.06692 69.8664 2.33393 69.5996L5.47846 66.455C6.01235 65.9211 6.01235 65.0554 5.47846 64.5214Z" fill="white"/>
<path d="M19.5028 67.5855C19.2487 67.3312 18.8959 67.1849 18.5364 67.1849C18.1753 67.1849 17.8241 67.3312 17.5698 67.5855C17.3155 67.8398 17.1692 68.1912 17.1692 68.5521C17.1692 68.9117 17.3153 69.2644 17.5698 69.5187C17.8241 69.773 18.1768 69.9193 18.5364 69.9193C18.8959 69.9193 19.2487 69.773 19.5028 69.5187C19.7571 69.2644 19.9036 68.9117 19.9036 68.5521C19.9036 68.1912 19.7573 67.8398 19.5028 67.5855Z" fill="white"/>
<path d="M29.675 57.413C29.1414 56.8791 28.2759 56.8791 27.7415 57.413L20.9813 64.1731C20.4474 64.7069 20.4474 65.5726 20.9813 66.1065C21.2483 66.3735 21.5982 66.507 21.9481 66.507C22.2979 66.507 22.6478 66.3734 22.9148 66.1065L29.675 59.3465C30.2089 58.8126 30.2089 57.9469 29.675 57.413Z" fill="white"/>
<path d="M53.0064 56.8941C52.4724 56.3603 51.607 56.3603 51.0729 56.8941L44.2944 63.6726C43.7606 64.2065 43.7606 65.0722 44.2944 65.6062C44.5615 65.8731 44.9113 66.0067 45.2612 66.0067C45.611 66.0067 45.9609 65.8731 46.2279 65.6062L53.0064 58.8277C53.5403 58.2938 53.5403 57.4281 53.0064 56.8941Z" fill="white"/>
<path d="M38.7598 18.6362C38.5055 18.3819 38.1528 18.2356 37.7932 18.2356C37.4336 18.2356 37.0809 18.3819 36.8266 18.6362C36.5725 18.8905 36.426 19.2432 36.426 19.6041C36.426 19.9637 36.5723 20.3151 36.8266 20.5694C37.0809 20.825 37.4336 20.97 37.7932 20.97C38.1528 20.97 38.5055 20.825 38.7598 20.5694C39.014 20.3151 39.1604 19.9637 39.1604 19.6041C39.1604 19.2432 39.0141 18.8905 38.7598 18.6362Z" fill="white"/>
</g>
<defs>
<clipPath id="clip0_15_1251">
<rect width="70" height="70" fill="white"/>
</clipPath>
</defs>
</svg>
