<svg width="70" height="70" viewBox="0 0 70 70" fill="none" xmlns="http://www.w3.org/2000/svg">
<path d="M62.1808 4.53004H60.9412V3.29041C60.9412 1.47602 59.4651 0 57.6507 0C55.8364 0 54.3603 1.47602 54.3603 3.29041V4.53004H49.6162V3.29041C49.6163 1.47602 48.1402 0 46.3259 0C44.5117 0 43.0355 1.47602 43.0355 3.29041V4.53004H38.2914V3.29041C38.2914 1.47602 36.8154 0 35.001 0C33.1866 0 31.7106 1.47602 31.7106 3.29041V4.53004H26.9664V3.29041C26.9665 1.47602 25.4904 0 23.6761 0C21.8617 0 20.3857 1.47602 20.3857 3.29041V4.53004H19.146C16.0828 4.53004 13.5908 7.02215 13.5908 10.0852V35.1781L11.0826 32.6699C9.79959 31.3869 7.71217 31.3871 6.4292 32.6699L3.22602 35.8731C1.94305 37.1559 1.94305 39.2435 3.22602 40.5263L13.5907 50.891V64.4447C13.5907 67.5079 16.0828 70 19.1458 70H54.0277C54.594 70 55.0531 69.5409 55.0531 68.9746C55.0531 68.4083 54.594 67.9492 54.0277 67.9492H19.146C17.2136 67.9492 15.6416 66.3771 15.6416 64.4447V52.9417L24.0066 61.3067C24.0309 61.3311 24.0564 61.354 24.0827 61.3755C24.1006 61.3901 24.1192 61.4031 24.1378 61.4164C24.1466 61.4225 24.1548 61.4295 24.1637 61.4354C24.1872 61.4511 24.2114 61.4651 24.2359 61.4786C24.2405 61.4812 24.2449 61.4842 24.2495 61.4867C24.2754 61.5005 24.3018 61.5125 24.3283 61.5238C24.3323 61.5255 24.3359 61.5277 24.34 61.5293C24.3659 61.54 24.3921 61.549 24.4185 61.5575C24.424 61.5593 24.4292 61.5614 24.4347 61.5631C24.4595 61.5706 24.4847 61.5765 24.5098 61.582C24.5174 61.5836 24.5246 61.5859 24.5321 61.5874C24.5566 61.5922 24.5812 61.5954 24.606 61.5984C24.6146 61.5995 24.6229 61.6012 24.6315 61.6021C24.6648 61.6053 24.6982 61.607 24.7316 61.607H30.7132L32.0145 62.9083C32.2146 63.1084 32.4771 63.2086 32.7395 63.2086C33.0019 63.2086 33.2644 63.1084 33.4645 62.9083C33.865 62.5078 33.865 61.8585 33.4645 61.4581L32.1632 60.1569V54.1756C32.1632 54.142 32.1616 54.1085 32.1583 54.075C32.1576 54.0676 32.156 54.0605 32.1552 54.0531C32.152 54.0271 32.1486 54.0013 32.1435 53.9756C32.1422 53.969 32.1403 53.9626 32.1388 53.9561C32.133 53.9299 32.1269 53.9038 32.1192 53.8781C32.1178 53.8735 32.1159 53.8691 32.1144 53.8645C32.1058 53.8372 32.0964 53.8102 32.0854 53.7835C32.0842 53.7806 32.0827 53.7779 32.0815 53.775C32.0697 53.7473 32.057 53.7198 32.0428 53.693C32.0409 53.6895 32.0387 53.6863 32.0368 53.6828C32.0227 53.6571 32.0079 53.6318 31.9915 53.6071C31.9865 53.5995 31.9804 53.5924 31.9751 53.5849C31.9612 53.565 31.9472 53.5452 31.9318 53.5262C31.9102 53.4998 31.8873 53.4744 31.863 53.4501L23.4979 45.0849H58.7832C59.3495 45.0849 59.8086 44.6258 59.8086 44.0595C59.8086 43.4932 59.3495 43.0341 58.7832 43.0341H22.5436C22.2424 43.0341 21.9722 43.1648 21.7846 43.3717L15.6414 37.2285V17.9056H65.6852V24.8989C65.6852 25.4652 66.1443 25.9243 66.7105 25.9243C67.2768 25.9243 67.7359 25.4652 67.7359 24.8989V10.0852C67.7361 7.02201 65.244 4.53004 62.1808 4.53004ZM30.1126 59.5563H27.2072L30.1126 56.6509V59.5563ZM8.6044 43.0045L10.3575 41.2515L26.4848 57.3787L24.7317 59.1317L8.6044 43.0045ZM27.9348 55.9285L11.8076 39.8013L13.5607 38.0483L29.6879 54.1755L27.9348 55.9285ZM4.6762 37.3233L7.87938 34.1201C8.36268 33.6368 9.14922 33.6366 9.63252 34.1201L12.1107 36.5982L7.15436 41.5543L4.67633 39.0763C4.1929 38.593 4.1929 37.8066 4.6762 37.3233ZM57.6507 2.05078C58.3343 2.05078 58.8904 2.60682 58.8904 3.29041V7.82031C58.8904 8.50391 58.3343 9.05994 57.6507 9.05994C56.9672 9.05994 56.4111 8.50391 56.4111 7.82031V5.5568C56.4111 5.55639 56.4111 5.55598 56.4111 5.55543C56.4111 5.55488 56.4111 5.55461 56.4111 5.55406V3.29041C56.4113 2.60682 56.9673 2.05078 57.6507 2.05078ZM46.3259 2.05078C47.0095 2.05078 47.5655 2.60682 47.5655 3.29041V7.82031C47.5655 8.50391 47.0095 9.05994 46.3259 9.05994C45.6423 9.05994 45.0863 8.50391 45.0863 7.82031V5.5568C45.0863 5.55639 45.0863 5.55598 45.0863 5.55543C45.0863 5.55488 45.0863 5.55461 45.0863 5.55406V3.29041C45.0863 2.60682 45.6423 2.05078 46.3259 2.05078ZM33.7615 3.29041C33.7615 2.60682 34.3175 2.05078 35.0011 2.05078C35.6847 2.05078 36.2407 2.60682 36.2407 3.29041V5.55406V5.55543C36.2407 5.55543 36.2407 5.55625 36.2407 5.5568V7.82031C36.2407 8.50391 35.6847 9.05994 35.0011 9.05994C34.3176 9.05994 33.7615 8.50391 33.7615 7.82031V3.29041ZM23.6761 2.05078C24.3596 2.05078 24.9158 2.60682 24.9158 3.29041V7.82031C24.9158 8.50391 24.3597 9.05994 23.6761 9.05994C22.9925 9.05994 22.4365 8.50391 22.4365 7.82031V3.29041C22.4365 2.60682 22.9925 2.05078 23.6761 2.05078ZM15.6416 15.8549V10.0852C15.6416 8.15281 17.2137 6.58082 19.146 6.58082H20.3857V7.82031C20.3857 9.63471 21.8617 11.1107 23.6761 11.1107C25.4904 11.1107 26.9665 9.63471 26.9665 7.82031V6.58082H31.7107V7.82031C31.7107 9.63471 33.1867 11.1107 35.0011 11.1107C36.8155 11.1107 38.2915 9.63471 38.2915 7.82031V6.58082H43.0356V7.82031C43.0356 9.63471 44.5117 11.1107 46.3261 11.1107C48.1405 11.1107 49.6165 9.63471 49.6165 7.82031V6.58082H54.3606V7.82031C54.3606 9.63471 55.8366 11.1107 57.651 11.1107C59.4654 11.1107 60.9414 9.63471 60.9414 7.82031V6.58082H62.1811C64.1134 6.58082 65.6856 8.15295 65.6856 10.0852V15.8549H15.6416Z" fill="white"/>
<path d="M66.7106 27.9752C66.1444 27.9752 65.6852 28.4343 65.6852 29.0006V64.4447C65.6852 66.3771 64.1131 67.9492 62.1807 67.9492H58.1292C57.5629 67.9492 57.1038 68.4083 57.1038 68.9746C57.1038 69.5409 57.5629 70 58.1292 70H62.1807C65.2439 70 67.736 67.5079 67.736 64.4447V29.0006C67.736 28.4343 67.2769 27.9752 66.7106 27.9752Z" fill="white"/>
<path d="M22.5436 24.7006H58.7832C59.3495 24.7006 59.8086 24.2415 59.8086 23.6752C59.8086 23.1089 59.3495 22.6498 58.7832 22.6498H22.5436C21.9773 22.6498 21.5182 23.1089 21.5182 23.6752C21.5182 24.2415 21.9773 24.7006 22.5436 24.7006Z" fill="white"/>
<path d="M22.5436 31.4955H58.7832C59.3495 31.4955 59.8086 31.0364 59.8086 30.4701C59.8086 29.9038 59.3495 29.4447 58.7832 29.4447H22.5436C21.9773 29.4447 21.5182 29.9038 21.5182 30.4701C21.5182 31.0364 21.9773 31.4955 22.5436 31.4955Z" fill="white"/>
<path d="M22.5436 38.2904H58.7832C59.3495 38.2904 59.8086 37.8313 59.8086 37.265C59.8086 36.6987 59.3495 36.2396 58.7832 36.2396H22.5436C21.9773 36.2396 21.5182 36.6987 21.5182 37.265C21.5182 37.8313 21.9773 38.2904 22.5436 38.2904Z" fill="white"/>
<path d="M59.8087 50.8549C59.8087 50.2886 59.3496 49.8295 58.7833 49.8295H35.0011C34.4348 49.8295 33.9757 50.2886 33.9757 50.8549C33.9757 51.4211 34.4348 51.8802 35.0011 51.8802H58.7833C59.3496 51.8802 59.8087 51.4211 59.8087 50.8549Z" fill="white"/>
</svg>
