<svg width="70" height="70" viewBox="0 0 70 70" fill="none" xmlns="http://www.w3.org/2000/svg">
<g clip-path="url(#clip0_15_1407)">
<path d="M69.3341 27.7357C69.3341 20.6061 63.533 14.805 56.4026 14.805C54.817 14.805 53.3033 15.1058 51.8984 15.631C48.2617 11.2726 43.3441 8.33054 37.9126 7.16746V5.94315C37.9126 2.66626 35.2464 0 31.9687 0C28.6918 0 26.0255 2.66626 26.0255 5.94315V7.5151C15.387 10.4247 7.53481 20.1496 7.53481 31.6981V51.5091H6.87429C3.59739 51.5091 0.931137 54.1754 0.931137 57.453C0.931137 60.7299 3.59739 63.3962 6.87429 63.3962H24.9426C25.8366 67.2331 29.2291 69.9998 33.2897 69.9998C37.3503 69.9998 40.7436 67.2331 41.6369 63.3962H58.3841C61.6618 63.3962 64.3273 60.7299 64.3273 57.453C64.3273 54.1754 61.6618 51.5091 58.3841 51.5091H57.7236V40.6C64.2359 39.9357 69.3341 34.4203 69.3341 27.7357ZM66.6928 27.7357C66.6928 33.4098 62.0767 38.0252 56.4026 38.0252C50.7292 38.0252 46.1132 33.4098 46.1132 27.7357C46.1132 22.0616 50.7292 17.4463 56.4026 17.4463C62.0767 17.4463 66.6928 22.0616 66.6928 27.7357ZM28.6669 5.94315C28.6669 4.12257 30.1474 2.64132 31.9687 2.64132C33.79 2.64132 35.2705 4.12257 35.2705 5.94315V6.74575C34.3984 6.65431 33.5172 6.60367 32.6292 6.60367C31.278 6.60367 29.9615 6.74122 28.6669 6.94754V5.94315ZM33.2897 67.3585C30.7013 67.3585 28.5195 65.7261 27.7033 63.3962H38.8762C38.06 65.7261 35.8782 67.3585 33.2897 67.3585ZM58.3841 54.1512C60.2055 54.1512 61.686 55.6324 61.686 57.453C61.686 59.2736 60.2055 60.7548 58.3841 60.7548H6.87429C5.05295 60.7548 3.57245 59.2736 3.57245 57.453C3.57245 55.6324 5.05295 54.1512 6.87429 54.1512H8.85585C9.58589 54.1512 10.1761 53.5594 10.1761 52.8301V31.6981C10.1761 19.3175 20.2487 9.24499 32.6292 9.24499C39.1044 9.24499 45.1692 12.0239 49.4384 16.8583C45.8555 19.1596 43.4711 23.171 43.4711 27.7357C43.4711 34.4203 48.5701 39.9357 55.0816 40.6V52.8301C55.0816 53.5594 55.6725 54.1512 56.4026 54.1512H58.3841Z" fill="#96CEBC"/>
<path d="M52.8687 32.5898C53.2066 32.5898 53.5451 32.4606 53.8028 32.2029L57.3367 28.6698C57.5846 28.4219 57.7236 28.0856 57.7236 27.7357V22.6873C57.7236 21.9581 57.1326 21.3671 56.4026 21.3671C55.6725 21.3671 55.0823 21.9581 55.0823 22.6873V27.1893L51.9354 30.3354C51.4192 30.8509 51.4192 31.6875 51.9354 32.2029C52.1931 32.4613 52.5309 32.5898 52.8687 32.5898Z" fill="#96CEBC"/>
<path d="M36.5915 51.5092H33.9502C33.2202 51.5092 32.6292 52.1009 32.6292 52.8302C32.6292 53.5595 33.2202 54.1512 33.9502 54.1512H36.5915C37.3216 54.1512 37.9126 53.5595 37.9126 52.8302C37.9126 52.1009 37.3216 51.5092 36.5915 51.5092Z" fill="#96CEBC"/>
<path d="M29.1067 51.5092H15.4595C14.7295 51.5092 14.1385 52.1009 14.1385 52.8302C14.1385 53.5595 14.7295 54.1512 15.4595 54.1512H29.1067C29.8367 54.1512 30.4277 53.5595 30.4277 52.8302C30.4277 52.1009 29.8367 51.5092 29.1067 51.5092Z" fill="#96CEBC"/>
</g>
<defs>
<clipPath id="clip0_15_1407">
<rect width="70" height="70" fill="white"/>
</clipPath>
</defs>
</svg>
