<svg width="70" height="70" viewBox="0 0 70 70" fill="none" xmlns="http://www.w3.org/2000/svg">
<path d="M53.2756 21.4162C53.0402 21.4163 52.8132 21.3286 52.639 21.1703L50.9741 19.6567C50.8805 19.5737 50.8043 19.4728 50.7499 19.3601C50.6955 19.2474 50.664 19.1249 50.6573 18.9999C50.6506 18.8749 50.6687 18.7499 50.7107 18.6319C50.7527 18.514 50.8177 18.4056 50.9018 18.3129C50.986 18.2203 51.0878 18.1453 51.2012 18.0922C51.3146 18.0392 51.4373 18.0092 51.5624 18.004C51.6875 17.9988 51.8123 18.0184 51.9298 18.0618C52.0472 18.1052 52.1548 18.1715 52.2464 18.2567L53.9123 19.7703C54.0536 19.8987 54.1527 20.0669 54.1966 20.2528C54.2405 20.4386 54.2271 20.6334 54.1583 20.8115C54.0894 20.9896 53.9682 21.1427 53.8107 21.2506C53.6531 21.3586 53.4666 21.4163 53.2756 21.4162Z" fill="#96CEBC"/>
<path d="M2.83784 61.3162C2.72812 61.3164 2.61924 61.2972 2.51622 61.2595C2.31133 61.1853 2.13834 61.0426 2.02648 60.8556C1.91462 60.6686 1.87076 60.4487 1.9023 60.2331C1.95716 59.8547 7.78041 22.6232 39.9643 22.6232H40.4014V9.62973C40.4015 9.44648 40.4548 9.26722 40.5549 9.11372C40.655 8.96022 40.7975 8.83909 40.9651 8.76504C41.1327 8.691 41.3182 8.66724 41.4991 8.69664C41.68 8.72605 41.8484 8.80735 41.9839 8.93067L48.1893 14.5818C48.3401 14.7047 48.4493 14.8711 48.5021 15.0584C48.5548 15.2456 48.5486 15.4446 48.4841 15.6282C48.4197 15.8117 48.3002 15.971 48.142 16.0842C47.9838 16.1974 47.7945 16.2591 47.6 16.2608H47.5905C47.355 16.2606 47.128 16.1726 46.9539 16.0139L42.2932 11.7704V23.5824C42.2932 23.7096 42.2676 23.8354 42.2179 23.9525C42.1681 24.0695 42.0953 24.1753 42.0038 24.2635C41.9134 24.3529 41.8054 24.4226 41.6867 24.4682C41.568 24.5137 41.4412 24.5343 41.3142 24.5284C41.0616 24.5189 40.8185 24.5095 40.5773 24.518C16.1426 24.1926 7.43892 46.2946 4.78459 56.0208C14.7785 43.9723 30.9788 42.0199 37.9324 41.7635C39.8565 41.6859 41.1487 41.7389 41.4968 41.7559L41.5914 41.7635C41.7135 41.7579 41.8354 41.7778 41.9494 41.8219C42.0635 41.8661 42.167 41.9335 42.2535 42.0199C42.3413 42.1109 42.4092 42.2193 42.4528 42.338C42.4964 42.4567 42.5149 42.5832 42.507 42.7095V54.7542L65.765 33.1081L62.3738 30.0243C62.2801 29.9412 62.2039 29.8404 62.1495 29.7277C62.0951 29.6149 62.0637 29.4925 62.057 29.3675C62.0502 29.2425 62.0684 29.1174 62.1104 28.9995C62.1523 28.8816 62.2173 28.7731 62.3015 28.6805C62.3857 28.5879 62.4874 28.5129 62.6008 28.4598C62.7142 28.4068 62.837 28.3768 62.9621 28.3716C63.0871 28.3663 63.212 28.386 63.3294 28.4294C63.4468 28.4728 63.5545 28.539 63.6461 28.6243L67.7988 32.3986C67.8956 32.4867 67.9732 32.5938 68.0265 32.7133C68.0799 32.8328 68.1078 32.9621 68.1086 33.093C68.1094 33.2239 68.083 33.3535 68.0312 33.4736C67.9793 33.5938 67.9031 33.7019 67.8073 33.7911L42.21 57.6195C42.0752 57.7452 41.9066 57.8288 41.7249 57.8599C41.5432 57.8911 41.3564 57.8686 41.1874 57.795C41.0184 57.7215 40.8745 57.6001 40.7735 57.4459C40.6725 57.2917 40.6188 57.1114 40.6189 56.927V43.6185C40.0362 43.6109 39.1395 43.6081 38.0091 43.6545C30.6704 43.925 12.6388 46.1414 3.64568 60.8631C3.56117 61.0016 3.44248 61.116 3.30101 61.1953C3.15954 61.2747 3.00004 61.3163 2.83784 61.3162Z" fill="#96CEBC"/>
<path d="M58.9986 26.6189C58.7639 26.6194 58.5374 26.532 58.3639 26.3739L56.6612 24.832C56.5654 24.7497 56.4871 24.649 56.4308 24.536C56.3745 24.4229 56.3415 24.2997 56.3336 24.1737C56.3257 24.0476 56.3431 23.9213 56.3848 23.802C56.4265 23.6828 56.4917 23.5732 56.5765 23.4796C56.6613 23.386 56.7639 23.3103 56.8784 23.257C56.9929 23.2037 57.1169 23.1738 57.2431 23.1692C57.3694 23.1646 57.4952 23.1853 57.6133 23.2301C57.7314 23.2749 57.8393 23.3429 57.9307 23.4301L59.6334 24.972C59.7749 25.1003 59.8743 25.2684 59.9185 25.4542C59.9626 25.64 59.9495 25.8349 59.8808 26.0131C59.8121 26.1914 59.6911 26.3446 59.5336 26.4528C59.3762 26.5609 59.1897 26.6188 58.9986 26.6189Z" fill="#96CEBC"/>
</svg>
