<svg width="70" height="70" viewBox="0 0 70 70" fill="none" xmlns="http://www.w3.org/2000/svg">
<g clip-path="url(#clip0_15_1209)">
<path d="M45.4287 44.2675C42.7585 44.417 40.078 44.2094 37.4627 43.6513L34.5937 43.0391C34.5231 43.0241 34.4513 43.0164 34.3792 43.0164L25.1178 43.0162C24.9158 43.0162 24.7181 43.0758 24.5496 43.1874L18.4578 47.2259C16.9975 48.194 15.0595 47.8333 14.0453 46.4045C13.1235 45.106 13.2787 43.3533 14.4145 42.2371L20.5865 36.1706L29.2442 31.2747C29.3052 31.2402 29.3627 31.1996 29.4154 31.1534L30.1191 30.5375C30.1719 30.4913 30.2198 30.4397 30.262 30.3838L37.6094 20.6644L40.7006 22.3742C40.8583 22.4615 41.0291 22.5028 41.1973 22.5028C41.5594 22.5028 41.9103 22.3114 42.0979 21.9721C42.3727 21.4753 42.1927 20.8497 41.6958 20.5749L38.8621 19.0074L42.7083 13.9196C43.209 13.2574 43.4219 12.4396 43.3075 11.6174C43.1933 10.795 42.7656 10.0665 42.1033 9.56569L40.1143 8.06196C39.452 7.56131 38.635 7.34855 37.8119 7.46274C36.9896 7.57707 36.261 8.00479 35.7604 8.66707L31.1629 14.7488L30.2339 14.235C29.867 14.0321 29.4518 13.9247 29.0326 13.9247H21.7197C20.567 13.9247 19.4477 14.3348 18.568 15.0794L12.5507 20.1716C12.1172 20.5385 12.0632 21.187 12.4299 21.6205C12.6334 21.8608 12.9235 21.9845 13.2153 21.9845C13.4499 21.9845 13.686 21.9046 13.879 21.7411L19.8962 16.649C20.4053 16.2182 21.0529 15.9811 21.7197 15.9811H29.0326C29.1044 15.9811 29.1757 15.9994 29.2386 16.0344L29.9102 16.4058L23.305 25.1433L14.266 30.192C13.9734 30.3553 13.7789 30.651 13.7446 30.9841L12.7065 41.0535C11.8383 42.039 11.3907 43.2729 11.3868 44.5178L11.2877 44.7604C10.9306 45.6339 10.0901 46.1983 9.14638 46.1983C7.87077 46.1983 6.833 45.1605 6.833 43.8849V30.5106C6.833 28.7268 7.61386 27.0429 8.97557 25.8907L10.526 24.5788C10.9595 24.2119 11.0137 23.5632 10.6468 23.1297C10.2801 22.6965 9.63154 22.6424 9.19779 23.0089L7.64731 24.321C5.82293 25.8649 4.7768 28.121 4.7768 30.5106V43.8849C4.7768 45.3032 5.45649 46.5654 6.50673 47.3642L1.85268 53.5206C1.6465 53.7933 1.49913 54.114 1.4262 54.448L0.0336427 60.8323C-0.0846654 61.375 0.114251 61.9241 0.552937 62.2649C0.810528 62.465 1.1172 62.5673 1.42716 62.5673C1.45814 62.5673 37.6167 62.5663 37.6167 62.5663C38.1846 62.5663 38.6449 62.1061 38.6449 61.5382C38.6449 60.9702 38.1846 60.51 37.6167 60.51H5.8672L7.98085 59.4504C8.30548 59.2876 8.59295 59.0484 8.81188 58.7585L15.6415 49.7244C15.9792 49.7917 16.323 49.8279 16.6687 49.8279C17.6729 49.8279 18.6896 49.5396 19.5942 48.9398L25.4278 45.0725L34.2709 45.0728L37.0336 45.6624C39.8275 46.2586 42.6904 46.4801 45.5437 46.3207C46.1106 46.289 46.5446 45.8037 46.5128 45.2367C46.4812 44.6697 45.9952 44.2368 45.4287 44.2675ZM28.6854 29.0597L28.1404 29.5367L19.4563 34.4473C19.378 34.4915 19.3058 34.546 19.2416 34.609L17.2392 36.5772L30.4505 19.1011L34.1387 21.8459L28.6854 29.0597ZM33.6578 14.8584L37.3459 17.6032L35.3787 20.2056L31.6904 17.4608L33.6578 14.8584ZM37.4008 9.90732C37.5702 9.68304 37.8168 9.53841 38.0951 9.49961C38.1442 9.49276 38.1934 9.48947 38.2421 9.48947C38.4695 9.48947 38.6897 9.56281 38.8742 9.70237L40.8632 11.2061C41.3259 11.556 41.4179 12.2169 41.068 12.6797L38.586 15.963L34.8979 13.2182L37.4008 9.90732ZM20.2232 29.2202L15.3258 35.6985L15.7353 31.7269L20.2232 29.2202ZM3.19259 55.9992L5.71668 58.2853L2.3229 59.9867L3.19259 55.9992ZM7.48116 57.1091L4.06023 54.0106L8.45326 48.1994C8.67918 48.2356 8.91045 48.2549 9.14638 48.2549C10.2563 48.2549 11.2884 47.8394 12.0731 47.1286C12.1629 47.2872 12.2605 47.4431 12.3683 47.5947C12.7406 48.1192 13.1897 48.5543 13.6882 48.8983L7.48116 57.1091Z" fill="white"/>
<path d="M68.9719 45.5855H59.5404C59.0281 45.5855 58.5951 44.9888 58.5951 44.2827V25.4398C58.5951 24.7338 59.028 24.1372 59.5404 24.1372H68.9719C69.5399 24.1372 70.0001 23.6769 70.0001 23.109C70.0001 22.541 69.5399 22.0808 68.9719 22.0808H59.5404C58.2081 22.0808 57.0762 23.0576 56.6853 24.4046H48.6203L45.5511 22.707C45.0543 22.4324 44.4286 22.6126 44.1538 23.1093C43.879 23.6062 44.0591 24.2317 44.556 24.5066L47.8574 26.3325C48.0097 26.4167 48.1809 26.461 48.355 26.461H56.5389V42.5079H54.2334C54.1242 42.5079 54.0154 42.5254 53.9117 42.5596L53.1741 42.8025C52.0268 43.1805 50.8394 43.4929 49.6449 43.7312C49.088 43.8424 48.7267 44.3839 48.8377 44.9407C48.9353 45.4296 49.3648 45.7678 49.845 45.7678C49.9117 45.7678 49.9794 45.7613 50.0474 45.7478C51.3231 45.4932 52.5916 45.1593 53.8176 44.7554L54.3985 44.564H56.5502C56.6787 46.2848 57.9702 47.6414 59.5406 47.6414H68.972C69.54 47.6414 70.0002 47.1812 70.0002 46.6132C70.0002 46.0453 69.5399 45.5855 68.9719 45.5855Z" fill="white"/>
</g>
<defs>
<clipPath id="clip0_15_1209">
<rect width="70" height="70" fill="white"/>
</clipPath>
</defs>
</svg>
