<svg width="70" height="70" viewBox="0 0 70 70" fill="none" xmlns="http://www.w3.org/2000/svg">
<path d="M61.7586 32.4379C59.3767 31.2471 54.9108 31.2333 54.7219 31.2333C54.1556 31.2333 53.6965 31.6924 53.6965 32.2587C53.6965 32.825 54.1556 33.2841 54.7219 33.2841C55.8743 33.2842 59.2202 33.4617 60.8415 34.2723C60.9888 34.346 61.1452 34.3807 61.2993 34.3807C61.6754 34.3807 62.0376 34.1729 62.2172 33.8137C62.4705 33.3072 62.2652 32.6912 61.7586 32.4379Z" fill="#96CEBC"/>
<path d="M66.8708 47.0368L62.6359 45.8268C62.4531 45.7746 62.3254 45.6054 62.3254 45.4152V44.0016C62.67 43.7629 62.9986 43.4958 63.3058 43.1976C64.7947 41.7528 65.6146 39.8148 65.6146 37.7405V35.7899L66.0241 34.9711C66.4735 34.0722 66.711 33.0658 66.711 32.0609V26.7767C66.711 26.2104 66.2519 25.7513 65.6856 25.7513H55.8182C52.2301 25.7513 49.3109 28.6706 49.3109 32.2586V32.3197C49.3109 33.1553 49.5085 33.9922 49.8821 34.7395L50.4072 35.7898V37.4646C50.4072 40.1188 51.7152 42.5003 53.6964 43.9334L53.6967 45.4149C53.6967 45.6434 53.6967 45.738 52.85 45.98L50.7836 46.5703L44.8062 44.3968C44.8276 44.1147 44.7325 43.8279 44.5267 43.6117L42.6166 41.605V38.2362C42.8185 38.0698 43.0176 37.8989 43.2105 37.7182C45.6202 35.4596 47.0021 32.2708 47.0021 28.9694V26.2791C47.7297 24.6957 48.0985 23.0202 48.0985 21.2947V10.3312C48.0985 9.76495 47.6394 9.30585 47.0731 9.30585H31.7238C26.3221 9.30585 21.9275 13.7005 21.9275 19.1022V21.295C21.9275 23.0205 22.2962 24.696 23.0238 26.2793V28.5941C23.0238 32.4272 24.7282 35.8804 27.4094 38.1571V41.6051L25.4993 43.6119C25.2935 43.828 25.1984 44.1148 25.2198 44.3969L18.9109 46.6909C18.4538 46.8572 18.029 47.0823 17.6433 47.3551L16.6526 46.8598C19.6016 45.5761 20.5358 43.7707 20.5807 43.681C20.7251 43.3924 20.7251 43.0525 20.5807 42.7639C19.8414 41.2855 19.7519 38.5756 19.68 36.3982C19.6561 35.6733 19.6334 34.9885 19.59 34.3787C19.2404 29.4604 15.5014 25.7513 10.8927 25.7513C6.28387 25.7513 2.54475 29.4602 2.19529 34.3787C2.15195 34.9886 2.12926 35.6734 2.10533 36.3984C2.03342 38.5757 1.94373 41.2853 1.20463 42.7638C1.06025 43.0524 1.06025 43.3923 1.20463 43.6809C1.24947 43.7706 2.18176 45.5723 5.13666 46.8574L2.38492 48.2332C0.913828 48.9693 0 50.4479 0 52.0925V59.668C0 60.2343 0.459102 60.6934 1.02539 60.6934C1.59168 60.6934 2.05078 60.2343 2.05078 59.668V52.0925C2.05078 51.2296 2.53025 50.4537 3.30203 50.0677L6.72861 48.3545L7.92053 49.4872C8.75396 50.2792 9.8231 50.675 10.8927 50.675C11.9619 50.675 13.0316 50.2789 13.8648 49.4872L15.0566 48.3546L16.1738 48.9133C15.6477 49.755 15.3491 50.7422 15.3491 51.7762V59.6682C15.3491 60.2345 15.8082 60.6936 16.3745 60.6936C16.9408 60.6936 17.3999 60.2345 17.3999 59.6682V51.7762C17.3999 50.3685 18.2887 49.0995 19.6118 48.6184L26.2634 46.1997L29.0324 50.3533C29.3863 50.8843 29.9536 51.2249 30.5886 51.2878C30.6595 51.2948 30.7299 51.2982 30.8001 51.2982C31.3604 51.2982 31.897 51.0777 32.2982 50.6767L33.9875 48.9874V59.6684C33.9875 60.2347 34.4466 60.6938 35.0129 60.6938C35.5791 60.6938 36.0382 60.2347 36.0382 59.6684V48.9874L37.7275 50.6767C38.1285 51.0778 38.6652 51.2983 39.2256 51.2983C39.2957 51.2983 39.3662 51.2949 39.4369 51.2879C40.0721 51.225 40.6394 50.8845 40.9933 50.3535L43.7624 46.2L50.4139 48.6186C51.7368 49.0998 52.6258 50.3688 52.6258 51.7764V59.6685C52.6258 60.2348 53.0849 60.6939 53.6512 60.6939C54.2175 60.6939 54.6766 60.2348 54.6766 59.6685V51.7764C54.6766 50.3507 54.1101 49.0136 53.1599 48.0247L53.4133 47.9524C53.6688 47.8794 54.0174 47.7795 54.3674 47.6079L56.9855 50.2259V59.6685C56.9855 60.2348 57.4446 60.6939 58.0109 60.6939C58.5772 60.6939 59.0363 60.2348 59.0363 59.6685V50.2259L61.6361 47.6261C61.7743 47.6963 61.9195 47.7557 62.0724 47.7993L66.3074 49.0092C67.274 49.2854 67.9492 50.1805 67.9492 51.1859V59.6685C67.9492 60.2348 68.4083 60.6939 68.9746 60.6939C69.5409 60.6939 70 60.2348 70 59.6685V51.1859C70 49.2694 68.7132 47.5633 66.8708 47.0368ZM6.57822 45.2257C4.6602 44.5355 3.69811 43.6154 3.2874 43.113C3.5674 42.381 3.74896 41.5426 3.87188 40.6576C4.43734 42.0135 5.38439 43.1709 6.57822 43.9967V45.2257ZM12.4523 48.0008C11.5778 48.8318 10.2077 48.8316 9.33338 48.0007L8.37977 47.0945C8.54068 46.793 8.62914 46.4512 8.62914 46.0932V45.0002C9.34445 45.2238 10.1049 45.3444 10.8929 45.3444C11.68 45.3444 12.44 45.2232 13.1566 45.0009L13.1564 46.093C13.1564 46.4512 13.2448 46.7932 13.4058 47.0948L12.4523 48.0008ZM10.8932 43.2936C7.83125 43.2936 5.34037 40.8026 5.34037 37.7407C5.34037 37.1745 4.88127 36.7154 4.31498 36.7154C4.25756 36.7154 4.2015 36.7212 4.14668 36.7304C4.14969 36.6422 4.15256 36.5539 4.15557 36.4665C4.1784 35.7615 4.20041 35.0955 4.24102 34.5243C4.37199 32.6819 5.10822 30.9841 6.31408 29.7435C7.53074 28.4917 9.15688 27.8024 10.8929 27.8024C12.629 27.8024 14.255 28.4917 15.4718 29.7435C16.6776 30.9841 17.4139 32.6819 17.5448 34.5243C17.5853 35.0954 17.6075 35.7612 17.6307 36.4661C17.6328 36.5267 17.6348 36.5881 17.6369 36.649C16.5212 34.9302 14.7983 33.6635 12.5721 32.9482C10.5154 32.2874 8.74658 32.3283 8.67193 32.3302C8.40342 32.3378 8.14857 32.4501 7.96223 32.6435L6.11215 34.5622C5.71908 34.9699 5.73084 35.619 6.13854 36.0121C6.54623 36.4051 7.19537 36.3932 7.58844 35.9857L9.12789 34.3892C10.4537 34.454 14.7189 34.95 16.3777 38.6028C15.9603 41.2945 13.6467 43.2936 10.8932 43.2936ZM15.2071 45.2291L15.2072 44.0062C16.4001 43.1849 17.3485 42.0296 17.9144 40.6635C18.0373 41.5465 18.2187 42.3829 18.4982 43.1132C18.0898 43.6109 17.1232 44.5392 15.2071 45.2291ZM25.0746 28.594V26.0499C25.0746 25.8956 25.0398 25.7431 24.9726 25.6041C24.3128 24.2377 23.9783 22.788 23.9783 21.295V19.1023C23.9783 14.8313 27.453 11.3568 31.7238 11.3568H46.0477V21.2951C46.0477 22.7881 45.7131 24.2379 45.0533 25.6042C44.9862 25.7433 44.9513 25.8957 44.9513 26.0501V28.9697C44.9513 31.7466 43.835 34.3222 41.808 36.2222C41.555 36.4593 41.2923 36.6816 41.0208 36.8887C41.0148 36.8928 41.0091 36.8973 41.0032 36.9016C39.1043 38.3433 36.7784 39.044 34.3495 38.8866C29.1486 38.5499 25.0746 34.0288 25.0746 28.594ZM30.8481 49.2264C30.841 49.2335 30.8245 49.2503 30.791 49.2467C30.7576 49.2434 30.7445 49.2239 30.7389 49.2154L27.5499 44.4319L28.5761 43.3536L33.4139 46.6604L30.8481 49.2264ZM35.013 45.2693L29.4602 41.4737V39.5597C30.8969 40.3364 32.5057 40.8221 34.2167 40.9329C34.487 40.9504 34.7557 40.959 35.0235 40.959C36.9842 40.959 38.8712 40.4903 40.5658 39.6007V41.4737L35.013 45.2693ZM39.2871 49.2157C39.2815 49.2242 39.2684 49.2437 39.235 49.247C39.2015 49.2512 39.1851 49.2336 39.1779 49.2266L36.612 46.6608L41.4498 43.3539L42.4762 44.4322L39.2871 49.2157ZM58.0109 48.3505L55.6839 46.0237C55.7245 45.8393 55.7475 45.6373 55.7473 45.4146L55.7472 44.9819C56.3929 45.1938 57.0735 45.3196 57.7778 45.3407C57.8568 45.3431 57.9351 45.3442 58.0139 45.3442C58.7921 45.3442 59.5517 45.2266 60.2746 45.0023V45.4152C60.2746 45.6197 60.3004 45.8201 60.3487 46.0128L58.0109 48.3505ZM61.8777 41.726C60.7909 42.7806 59.3552 43.3376 57.8394 43.2908C54.8721 43.2018 52.458 40.5882 52.458 37.4648V35.5479C52.458 35.3886 52.421 35.2317 52.3497 35.0894L51.7163 33.8225C51.4843 33.3584 51.3617 32.8388 51.3617 32.3199V32.2587C51.3617 29.8014 53.3609 27.8023 55.8182 27.8023H64.6602V32.061C64.6602 32.7493 64.4975 33.4385 64.1897 34.0541L63.6721 35.0894C63.6009 35.2318 63.5638 35.3886 63.5638 35.5479V37.7406C63.5638 39.2555 62.965 40.6708 61.8777 41.726Z" fill="#96CEBC"/>
<path d="M64.589 52.0645C64.0227 52.0645 63.5636 52.5236 63.5636 53.0898V59.6681C63.5636 60.2344 64.0227 60.6935 64.589 60.6935C65.1553 60.6935 65.6144 60.2344 65.6144 59.6681V53.0898C65.6144 52.5237 65.1553 52.0645 64.589 52.0645Z" fill="#96CEBC"/>
<path d="M5.41101 53.4198C4.84472 53.4198 4.38562 53.8789 4.38562 54.4452V59.668C4.38562 60.2343 4.84472 60.6934 5.41101 60.6934C5.9773 60.6934 6.4364 60.2343 6.4364 59.668V54.4452C6.4364 53.879 5.9773 53.4198 5.41101 53.4198Z" fill="#96CEBC"/>
<path d="M43.4126 21.6665C39.5345 17.7883 31.4203 18.5297 28.1115 19.0285C27.0693 19.1856 26.3129 20.0675 26.3129 21.1256V23.4878C26.3129 24.0541 26.772 24.5132 27.3383 24.5132C27.9046 24.5132 28.3637 24.0541 28.3637 23.4878V21.1255C28.3637 21.0906 28.3867 21.0608 28.4173 21.0561C29.739 20.8569 32.3616 20.5496 35.0789 20.7307C38.2765 20.9436 40.5925 21.7463 41.9626 23.1165C42.363 23.5169 43.0123 23.5169 43.4126 23.1165C43.8131 22.716 43.8131 22.0668 43.4126 21.6665Z" fill="#96CEBC"/>
<path d="M22.9529 54.2572C22.3866 54.2572 21.9275 54.7163 21.9275 55.2826V59.6681C21.9275 60.2344 22.3866 60.6935 22.9529 60.6935C23.5192 60.6935 23.9783 60.2344 23.9783 59.6681V55.2826C23.9783 54.7164 23.5192 54.2572 22.9529 54.2572Z" fill="#96CEBC"/>
<path d="M47.0732 54.2572C46.5069 54.2572 46.0478 54.7163 46.0478 55.2826V59.6681C46.0478 60.2344 46.5069 60.6935 47.0732 60.6935C47.6395 60.6935 48.0986 60.2344 48.0986 59.6681V55.2826C48.0986 54.7164 47.6395 54.2572 47.0732 54.2572Z" fill="#96CEBC"/>
</svg>
