<svg width="120" height="60" viewBox="0 0 120 60" fill="none" xmlns="http://www.w3.org/2000/svg">
<path d="M27.716 9.39301C22.2508 9.39301 17.0095 11.564 13.145 15.4285C9.28053 19.293 7.1095 24.5343 7.1095 29.9995C7.1095 35.4647 9.28053 40.706 13.145 44.5705C17.0095 48.435 22.2508 50.606 27.716 50.606C33.1812 50.606 38.4225 48.435 42.287 44.5705C46.1515 40.706 48.3225 35.4647 48.3225 29.9995C48.3225 24.5343 46.1515 19.293 42.287 15.4285C38.4225 11.564 33.1812 9.39301 27.716 9.39301ZM40.867 29.1L40.83 34.083C40.83 34.608 40.418 35.02 39.893 35.02C39.368 35.02 38.956 34.57 38.956 34.046L38.993 29.063C38.993 26.216 36.67 23.93 33.86 23.93C31.275 23.93 28.99 26.178 28.802 28.95V29.137L28.727 31.047V31.159C28.615 34.869 25.542 37.903 21.721 37.903C17.861 37.903 14.751 34.803 14.751 30.973C14.751 30.973 14.788 30.973 14.788 30.936H14.751V26.178C14.751 25.653 15.163 25.316 15.688 25.316C16.213 25.316 16.625 25.691 16.625 26.178L16.588 30.936C16.588 33.783 18.911 36.069 21.721 36.069C24.568 36.069 26.854 33.746 26.854 30.936V30.786L26.929 29.063V28.8C27.191 25.016 30.226 22.056 33.823 22.056C37.683 22.056 40.829 25.203 40.829 29.062C40.866 29.062 40.866 29.099 40.866 29.099L40.867 29.1Z" fill="#37D97A"/>
<path d="M57.515 34.187C57.515 35.087 57.515 36.187 58.143 37.013C58.509 37.433 59.19 38.007 60.446 38.007C61.702 38.007 62.383 37.431 62.749 37.013C63.377 36.176 63.377 35.129 63.377 34.187V26.545H65.627V34.448C65.627 36.071 65.47 37.274 64.423 38.373C63.273 39.629 61.701 39.996 60.393 39.996C59.085 39.996 57.567 39.576 56.363 38.373C55.316 37.223 55.159 36.018 55.159 34.448V26.545H57.409V34.187H57.515ZM86.773 20.003C87.2029 20.0048 87.6146 20.1764 87.9186 20.4804C88.2226 20.7844 88.3942 21.1961 88.396 21.626C88.3942 22.0559 88.2226 22.4676 87.9186 22.7716C87.6146 23.0756 87.2029 23.2471 86.773 23.249C86.3431 23.2471 85.9314 23.0756 85.6274 22.7716C85.3234 22.4676 85.1518 22.0559 85.15 21.626C85.1518 21.1961 85.3234 20.7844 85.6274 20.4804C85.9314 20.1764 86.3431 20.0048 86.773 20.003ZM87.923 26.545V39.63H85.62V26.545H87.923ZM94.938 28.64V39.64H92.688V28.64H91.275V26.546H92.688V21.846H94.938V26.546H97.188V28.64H94.938ZM98.968 33.14C98.968 29.162 101.898 26.24 105.928 26.24C109.958 26.24 112.888 29.17 112.888 33.14C112.888 37.11 109.905 39.996 105.928 39.996C101.898 40.048 98.968 37.116 98.968 33.14ZM101.271 33.14C101.271 36.385 103.521 38.008 105.877 38.008C108.233 38.008 110.483 36.333 110.483 33.14C110.483 29.895 108.285 28.272 105.877 28.272C103.469 28.272 101.271 29.947 101.271 33.14ZM72.746 39.84H70.443V31.937C70.443 30.314 70.6 29.111 71.647 28.012C72.797 26.756 74.369 26.389 75.677 26.389C76.985 26.389 78.503 26.809 79.707 28.012C80.754 29.162 80.911 30.367 80.911 31.937V39.84H78.661V32.198C78.661 31.298 78.661 30.198 78.033 29.372C77.667 28.952 76.986 28.378 75.73 28.378C74.474 28.378 73.793 28.954 73.427 29.372C72.799 30.209 72.799 31.256 72.799 32.198V39.84H72.746Z" fill="#424263"/>
</svg>
